<svg width="36" height="39" viewBox="0 0 36 39" fill="none" xmlns="http://www.w3.org/2000/svg">
<path fill-rule="evenodd" clip-rule="evenodd" d="M5.57726 0.70564C2.78918 3.4752 0.733674 7.69259 0.136661 11.8682C-0.0448831 13.1379 -0.045651 15.4226 0.134954 16.6515C0.563732 19.568 1.621 22.0584 3.50418 24.5879C3.82512 25.019 4.18122 25.4609 4.29545 25.57L4.50327 25.7684L4.82362 24.7427C6.44753 19.5444 9.57737 14.7029 13.6363 11.1108L14.4428 10.3971L14.3869 9.96726C14.3562 9.73083 14.1655 9.02459 13.9632 8.39795C12.682 4.42979 10.2024 1.37103 7.33051 0.216064C6.4616 -0.133397 6.40632 -0.117896 5.57726 0.70564ZM33.1093 4.95769C22.5224 5.63658 13.7287 10.7355 8.79745 19.0548C7.01221 22.0665 5.80521 25.3305 5.17339 28.8549C5.06181 29.4776 4.94373 30.2501 4.91115 30.5717C4.8533 31.1418 4.85834 31.163 5.11077 31.4207C5.56591 31.8853 4.55002 32.5087 14.8952 25.4169C18.2266 23.1332 21.0087 21.2308 21.0778 21.1894C21.2193 21.1045 20.5139 22.1549 19.5558 23.4558C16.4172 27.7174 12.2489 31.5832 7.93631 34.2323C5.91646 35.4729 4.02356 36.3989 1.75716 37.2548C1.10026 37.5029 0.495568 37.7858 0.413498 37.8836C0.0877769 38.2715 0.395668 39 0.885188 39C1.54166 39 5.34888 37.3523 7.42461 36.1699L8.54595 35.5311L9.24653 35.8622C12.2175 37.266 15.8376 37.6077 19.5021 36.8303C20.9922 36.5142 21.8436 36.2388 23.0658 35.6776C30.7544 32.1474 35.2217 25.4849 35.9306 16.4913C36.0725 14.6903 35.9875 11.1475 35.7611 9.42944C35.5531 7.85047 35.1102 5.62822 34.9345 5.28137C34.814 5.04355 34.4974 4.84875 34.2768 4.87661C34.2212 4.88358 33.6958 4.92015 33.1093 4.95769Z" fill="#2F2825"/>
</svg>
