<svg width="99" height="129" viewBox="0 0 99 129" fill="none" xmlns="http://www.w3.org/2000/svg">
<g opacity="0.05">
<mask id="path-1-inside-1_233_11198" fill="white">
<path fill-rule="evenodd" clip-rule="evenodd" d="M102.202 0.478198C104.116 1.36323 105.234 3.05216 106.097 6.36114C106.736 8.81135 106.513 12.6996 105.599 15.0687C105.496 15.3357 105.749 15.6248 106.387 15.9678C107.786 16.7204 109.519 18.7887 110.024 20.3084C110.892 22.919 110.193 25.8136 108.148 28.0748L107.22 29.1012L108.03 30.0227C108.475 30.5294 109.16 31.554 109.553 32.2994C110.175 33.4837 110.266 33.9502 110.268 35.9948C110.27 37.9929 110.168 38.5521 109.572 39.8219C109.188 40.6401 108.34 41.8281 107.687 42.4619L106.5 43.6145L107.344 45.3947C108.092 46.9711 108.188 47.4274 108.184 49.3846C108.181 51.2847 108.081 51.7846 107.469 52.951C106.059 55.637 104.195 56.9206 100.186 57.9684C98.933 58.2955 97.9084 58.653 97.9084 58.7627C97.9084 58.8724 98.3077 59.2086 98.7956 59.5099C100.293 60.4342 102.745 63.2806 103.718 65.2226C105.036 67.8553 105.559 70.4623 105.389 73.5513L105.25 76.054L107.106 75.4324C108.519 74.9589 109.335 74.8385 110.527 74.9275C112.037 75.0403 112.17 74.9971 114.349 73.6901C117.956 71.5254 119.791 70.8647 122.241 70.8484C124.622 70.8322 125.672 71.2285 127.142 72.6977C128.584 74.1381 129.009 75.2272 129 77.4642C128.995 78.8032 128.852 79.6758 128.543 80.2493C127.895 81.4539 104.305 110.453 103.162 111.451C100.43 113.835 96.3954 114.936 93.4192 114.11C92.462 113.845 92.4175 113.865 91.1257 115.155C89.6652 116.615 88.1113 117.496 85.8305 118.158L84.3148 118.598L85.9372 120.234C87.3017 121.609 87.4825 121.892 87.0737 122.012C86.8064 122.091 78.8585 123.695 69.4117 125.578L52.2355 129L49.3728 128.862C45.9769 128.699 44.1393 128.248 41.229 126.864C36.6877 124.703 33.3558 121.329 31.1505 116.657C29.7413 113.672 29.4209 112.103 29.2387 107.295L29.0737 102.936L23.999 108.023L18.9242 113.11L19.7049 113.681C22.032 115.383 22.8219 116.945 22.8211 119.844C22.8206 121.729 22.7196 122.246 22.1317 123.364C21.3393 124.872 19.4343 126.732 18.1193 127.28C15.8723 128.218 9.68656 128.944 3.93256 128.944H0.0564728V125.071C0.0564728 119.323 0.782288 113.143 1.72125 110.898C2.27063 109.584 4.13164 107.681 5.64132 106.889C6.76063 106.302 7.27747 106.201 9.16503 106.201C12.0668 106.2 13.6303 106.989 15.3339 109.314L15.9056 110.094L20.997 105.024L26.0885 99.954L21.7257 99.7891C16.8974 99.6066 15.3448 99.2884 12.3111 97.8586C7.62125 95.6487 4.22794 92.251 2.0031 87.5376C0.751587 84.8866 0.296677 82.9684 0.137924 79.6742L0 76.8143L3.4256 59.6545C5.30977 50.2166 6.91652 42.274 6.9959 42.0043C7.11066 41.6151 10.3871 44.7569 22.8542 57.2108L38.5675 72.9075L39.012 72.2609C39.7495 71.1877 41.2139 69.9522 42.4654 69.3466C43.3528 68.9174 44.3103 68.7398 46.3066 68.6345L48.9658 68.4944L48.0726 67.1944C46.5942 65.0419 45.9894 62.9271 45.9909 59.9145C45.992 57.6447 46.1052 56.9804 46.8805 54.6849C47.7184 52.2043 47.7497 51.9874 47.4327 50.8562L47.0965 49.6568L45.9084 50.7018C38.7842 56.9666 28.4486 56.4209 21.5488 49.4156L20.0094 47.8527L20.9632 46.7979C21.4879 46.2178 21.917 45.5442 21.917 45.3011C21.917 45.058 21.1332 43.6735 20.1752 42.2243L18.4336 39.5892L16.5333 39.2702C12.6193 38.6132 9.10205 36.1279 7.60226 32.9593C6.50871 30.6495 6.21307 28.899 6.38041 25.7249C6.65653 20.4909 8.05509 17.1596 11.3526 13.8808C14.3259 10.9243 17.9636 9.15923 22.5676 8.43878C23.4756 8.29682 23.7083 8.10806 24.3893 6.96199C25.8667 4.47591 28.8892 2.1986 32.1967 1.08009C35.748 -0.121094 41.9179 -0.324152 45.8348 0.631336C48.1801 1.20359 51.4517 2.80647 53.2044 4.24217C54.7849 5.53695 56.726 8.0454 57.5221 9.82196C57.8092 10.4626 58.4137 11.169 59.0229 11.5756C62.537 13.9224 64.2651 17.189 64.5133 21.955C64.7455 26.4165 63.5749 30.123 60.764 33.8254L59.4503 35.5559L60.4082 36.4903L61.3659 37.4248H65.8559H70.3462L70.201 36.5798C69.4687 32.3127 66.6643 8.17254 66.7715 7.05845C67.3266 1.29459 74.3896 -2.13919 78.2181 1.494C79.1937 2.41985 79.5287 3.12132 80.0736 5.38017C80.3235 6.41678 80.5613 7.26515 80.6019 7.26515C80.6423 7.26515 81.1859 7.03375 81.81 6.75088C83.1003 6.16588 84.7544 6.08398 86.2477 6.53092C87.5741 6.92793 89.4664 8.60257 89.8802 9.74578C90.0592 10.2403 90.2734 10.6451 90.3564 10.6451C90.4392 10.6451 91.4325 9.03651 92.5638 7.07015C95.6131 1.7696 95.953 1.32371 97.4835 0.611836C99.0962 -0.138514 100.767 -0.185834 102.202 0.478198ZM100.688 4.53207C101.356 4.99954 102.035 6.8775 102.242 8.83059C102.526 11.5044 101.756 13.836 99.2388 17.925C98.0508 19.8555 97.9946 19.7138 100.505 21.1222L101.802 21.8491L102.607 20.5419L103.413 19.2344L104.398 19.7367C105.408 20.2512 106.236 21.5361 106.236 22.5875C106.236 23.7887 105.37 24.953 101.971 28.3194L98.4328 31.8237L99.9191 33.3244L101.405 34.8248L102.774 33.4741L104.143 32.1237L104.793 32.7334C106.299 34.147 106.588 36.7641 105.443 38.6158C105.162 39.0695 103.536 40.4724 101.831 41.7332L98.7295 44.0256L99.4959 45.0801C99.9175 45.6602 100.479 46.4165 100.744 46.7607L101.226 47.3868L102.015 46.8257C102.448 46.5171 102.879 46.2646 102.971 46.2646C103.28 46.2646 104.143 48.4658 104.143 49.2546C104.143 50.4498 103.24 52.1752 102.323 52.7323C101.537 53.2099 93.3838 55.6245 92.5573 55.6245C91.7935 55.6245 83.5507 50.8759 83.341 50.3149C83.2296 50.0177 83.0048 49.1896 82.8411 48.4746C82.3744 46.4373 80.8575 43.5968 79.4209 42.0701C78.2782 40.8559 78.1421 40.5991 78.3721 40.0926C79.0693 38.5576 98.7888 4.75358 99.1524 4.47019C99.6948 4.04743 100.014 4.06043 100.688 4.53207ZM75.1857 4.33603C75.3556 4.45147 75.9852 6.5031 76.5845 8.89533C77.1836 11.2878 77.7785 13.2451 77.9063 13.2451C78.0341 13.2451 79.4227 12.6016 80.9925 11.8151C82.5623 11.0286 84.0668 10.3851 84.3362 10.3851C85.4711 10.3851 86.1266 11.3318 86.721 13.8298L87.2933 16.235L81.1125 26.8949C77.7132 32.7578 74.8528 37.6447 74.756 37.755C74.6595 37.8649 73.7218 31.0754 72.6725 22.6668C70.7863 7.55219 70.7699 7.36785 71.2263 6.4069C71.4801 5.87235 72.0237 5.1961 72.4341 4.90412C73.2654 4.31289 74.7115 4.01415 75.1857 4.33603ZM43.6474 4.52869C49.137 5.54267 53.0121 8.62493 54.1624 12.892C54.4161 13.8337 54.6256 14.0511 55.8633 14.6561C58.2787 15.8367 59.6848 17.8876 60.2211 21.0125C60.8051 24.4143 59.8248 28.1023 57.5286 31.1404L56.4692 32.5425L54.4525 30.5398L52.4362 28.537L53.2065 26.156C54.1202 23.3316 54.0687 21.9828 52.9689 19.9644C51.3728 17.0343 48.0136 15.8419 45.0788 17.164C44.4347 17.4542 43.3148 18.2742 42.5903 18.9863L41.2727 20.2808L39.7773 19.5968C37.793 18.6894 35.7194 18.5142 33.7451 19.0875C31.9612 19.6056 31.2307 20.0736 29.0188 22.1159C25.8301 25.0598 21.8733 26.6924 17.2977 26.9518L14.6302 27.1032L14.6453 29.0791C14.6533 30.1657 14.8665 31.8445 15.1184 32.8098C15.6485 34.8409 15.5457 34.9153 13.7667 33.7882C10.7655 31.8868 9.73548 27.5225 11.0885 22.4406C12.5974 16.774 17.6139 13.1029 24.6082 12.5467C25.7319 12.4573 26.6837 12.2566 26.7266 12.0998C27.5302 9.15819 29.1625 7.17935 31.901 5.82737C35.0432 4.27571 39.5697 3.77548 43.6474 4.52869ZM48.4084 21.0517C48.7368 21.1864 49.1776 21.7082 49.3879 22.2111C49.7528 23.0831 49.721 23.2768 48.6998 26.4121L47.6294 29.699L53.574 35.642L59.5182 41.5847H64.5172C69.8965 41.5847 71.561 41.8104 73.5446 42.8085C75.0892 43.5859 77.1079 45.5528 77.8472 47.0007C79.0667 49.3893 79.1711 50.4594 79.1669 60.5541C79.1628 70.7836 79.0363 72.0477 77.7639 74.5559C76.3185 77.4057 73.3062 79.7871 70.0833 80.6276C68.5929 81.0163 66.8659 81.0761 56.7799 81.0891C45.2628 81.1042 45.1816 81.1006 44.0279 80.5192C42.778 79.8895 41.6956 78.2305 41.6956 76.9443C41.6956 75.6581 42.778 73.999 44.0279 73.3693C45.1852 72.7861 45.2316 72.7843 58.0161 72.7843H70.843V70.7043V68.6244H68.8667H66.8904L67.0471 67.3894C67.5389 63.5113 68.7548 50.3315 68.632 50.2091C68.455 50.0323 64.7913 49.6241 64.6497 49.7652C64.5945 49.8206 64.1279 54.0864 63.6131 59.245L62.677 68.6244H58.8652H55.0534L53.314 66.8241C49.8288 63.2175 49.3471 60.539 51.194 55.0364L52.2207 51.9783L51.1427 48.7253L50.0651 45.4722L50.7206 43.8602C51.5906 41.7209 52.0952 39.2492 52.101 37.0998L52.1054 35.3448H50.0234H47.9415L47.937 36.7098C47.9248 40.4033 46.2957 44.2757 43.6178 46.977C39.1072 51.5267 32.1579 52.1213 26.7833 48.4174C25.7975 47.7378 25.7949 47.7315 25.9672 46.3536C26.0622 45.5933 26.064 44.5661 25.9711 44.0708C25.8774 43.5721 24.5372 41.2509 22.9684 38.8706C20.2468 34.7406 18.8805 32.0121 19.1644 31.2732C19.2381 31.0816 19.6263 30.9248 20.0274 30.9248C21.243 30.9248 24.4453 29.9285 26.4247 28.9346C28.819 27.7323 29.9968 26.9178 32.1181 24.9969C34.9225 22.4581 36.0748 22.3535 39.8739 24.2947L42.086 25.4249L44.298 23.2505C46.5479 21.039 47.3421 20.6142 48.4084 21.0517ZM10.143 50.4657C10.391 50.7135 10.4663 53.5612 10.4663 62.7074C10.4663 72.5664 10.5376 74.9724 10.8785 76.6302C12.3184 83.6293 17.3794 89.4004 24.0146 91.6088C25.656 92.1554 30.9715 93.064 32.5256 93.064C32.8153 93.064 32.535 93.493 31.6762 94.364L30.3945 95.664H25.1378C18.7457 95.664 16.6957 95.3341 13.5923 93.8055C10.4967 92.2809 7.60669 89.3937 6.08061 86.301C4.93684 83.9829 4.22038 81.0545 4.22038 78.6966C4.22038 77.4921 9.18949 51.6952 9.63061 50.6087C9.78129 50.2377 9.88564 50.2085 10.143 50.4657ZM26.1421 66.4781C36.7252 77.0558 37.5512 77.9463 37.9124 79.1659C38.4134 80.8575 39.6407 82.6985 40.7871 83.4785C41.2849 83.817 41.6927 84.155 41.6938 84.2294C41.6948 84.3037 40.5864 85.468 39.2306 86.8168L36.7658 89.2691L32.3992 88.8097C29.9976 88.557 27.3301 88.1725 26.4713 87.9551C22.3698 86.9169 18.1458 83.5061 16.3774 79.8042C14.7702 76.4401 14.6067 74.9498 14.6885 64.3981L14.7603 55.1022L26.1421 66.4781ZM89.571 59.0154C92.9294 60.8778 96.1994 62.8077 96.8378 63.3046C99.3679 65.2738 100.969 68.3173 101.21 71.6143C101.321 73.1293 101.078 74.8068 99.7619 81.6242L98.1804 89.8141L96.481 91.3741C95.5462 92.2321 94.1422 93.7452 93.3607 94.7363L91.9397 96.5389L93.6696 97.6982L95.3997 98.8575L96.0219 98.1059C99.5136 93.8877 101.979 91.874 106.45 89.5894C110.729 87.4026 111.946 85.9253 112.461 82.2911C112.597 81.3301 112.902 80.2501 113.137 79.8908C114.08 78.4538 119.682 75.3281 122.006 74.9428C123.75 74.6537 125.311 76.3424 124.814 77.9809C124.687 78.3987 119.113 85.4623 112.428 93.6779C101.128 107.564 100.174 108.663 98.8792 109.296C96.888 110.269 95.159 110.425 93.8343 109.75C89.5249 107.553 86.5803 97.5778 85.6278 81.9492L85.3228 76.9443H83.2811H81.2395L81.665 76.1219C83.1062 73.3376 83.1643 72.9128 83.3191 64.0118L83.4649 55.6295L89.571 59.0154ZM81.3624 81.6728C81.4636 84.1064 81.5003 86.1437 81.4435 86.2004C81.3868 86.2568 80.2376 85.825 78.8892 85.2405C77.5412 84.656 76.0383 84.0107 75.549 83.8063L74.66 83.4345L75.8184 82.7006C77.5443 81.607 78.876 80.3668 80.0908 78.7213L81.1781 77.2485L81.3624 81.6728ZM108.714 79.5364C108.609 79.7057 108.432 80.5793 108.32 81.4781C108.209 82.3766 107.921 83.4114 107.681 83.7777C107.306 84.3497 103.113 86.8155 103.113 86.4643C103.113 86.3268 103.809 82.8927 104.028 81.95C104.122 81.5462 104.704 81.0954 105.916 80.4893C108.059 79.4166 108.982 79.1022 108.714 79.5364ZM68.8852 87.7991C69.2893 93.727 70.1984 100.301 71.1053 103.854C71.3609 104.855 71.5477 105.699 71.5204 105.729C71.4931 105.759 66.8506 101.167 61.2038 95.5239L50.9366 85.2641H59.8245H68.7124L68.8852 87.7991ZM60.0429 100.344L74.0942 114.384H64.6502C53.9867 114.384 52.577 114.224 49.2427 112.637C46.639 111.397 43.7146 108.523 42.3993 105.911C41.1585 103.447 40.7736 101.802 40.2286 96.6307L39.7685 92.2677L42.7447 89.2858C44.3816 87.646 45.7817 86.3041 45.8561 86.3041C45.9306 86.3041 52.3146 92.622 60.0429 100.344ZM77.7395 89.31L82.1636 91.203L82.3692 92.5885C83.4794 100.068 85.5395 106.471 87.8856 109.733C88.3884 110.433 88.7999 111.17 88.7999 111.371C88.7999 111.573 88.4191 112.059 87.9541 112.452C86.1756 113.954 83.3977 114.702 81.6913 114.14C78.7667 113.175 76.1804 108.053 74.6483 100.191C73.9308 96.5098 73.0959 89.454 73.2305 88.206L73.3153 87.4169L77.7395 89.31ZM35.9702 96.5054C35.9702 98.0581 36.8798 103.368 37.4268 105.008C39.6373 111.637 45.414 116.693 52.4198 118.132C54.0793 118.472 56.4892 118.544 66.3759 118.544C76.3657 118.544 78.3766 118.604 78.6321 118.912C78.8747 119.204 78.8408 119.309 78.4689 119.418C76.5361 119.985 51.3931 124.784 50.3513 124.784C44.1268 124.784 37.9663 120.969 35.228 115.421C33.698 112.32 33.3678 110.272 33.3678 103.886V98.6345L34.669 97.354C35.5408 96.496 35.9702 96.216 35.9702 96.5054ZM10.7265 110.679C11.9895 111.31 12.5474 112.544 12.5477 114.709L12.5482 116.464H14.2481C17.0603 116.464 18.3691 117.328 18.7072 119.41C18.9208 120.724 18.0303 122.452 16.7772 123.156C15.6316 123.799 11.7388 124.422 7.23766 124.685L4.13918 124.865L4.31954 121.769C4.58186 117.272 5.20644 113.383 5.85003 112.239C6.4322 111.203 8.05301 110.224 9.18221 110.224C9.53068 110.224 10.2255 110.429 10.7265 110.679Z"/>
</mask>
<path fill-rule="evenodd" clip-rule="evenodd" d="M102.202 0.478198C104.116 1.36323 105.234 3.05216 106.097 6.36114C106.736 8.81135 106.513 12.6996 105.599 15.0687C105.496 15.3357 105.749 15.6248 106.387 15.9678C107.786 16.7204 109.519 18.7887 110.024 20.3084C110.892 22.919 110.193 25.8136 108.148 28.0748L107.22 29.1012L108.03 30.0227C108.475 30.5294 109.16 31.554 109.553 32.2994C110.175 33.4837 110.266 33.9502 110.268 35.9948C110.27 37.9929 110.168 38.5521 109.572 39.8219C109.188 40.6401 108.34 41.8281 107.687 42.4619L106.5 43.6145L107.344 45.3947C108.092 46.9711 108.188 47.4274 108.184 49.3846C108.181 51.2847 108.081 51.7846 107.469 52.951C106.059 55.637 104.195 56.9206 100.186 57.9684C98.933 58.2955 97.9084 58.653 97.9084 58.7627C97.9084 58.8724 98.3077 59.2086 98.7956 59.5099C100.293 60.4342 102.745 63.2806 103.718 65.2226C105.036 67.8553 105.559 70.4623 105.389 73.5513L105.25 76.054L107.106 75.4324C108.519 74.9589 109.335 74.8385 110.527 74.9275C112.037 75.0403 112.17 74.9971 114.349 73.6901C117.956 71.5254 119.791 70.8647 122.241 70.8484C124.622 70.8322 125.672 71.2285 127.142 72.6977C128.584 74.1381 129.009 75.2272 129 77.4642C128.995 78.8032 128.852 79.6758 128.543 80.2493C127.895 81.4539 104.305 110.453 103.162 111.451C100.43 113.835 96.3954 114.936 93.4192 114.11C92.462 113.845 92.4175 113.865 91.1257 115.155C89.6652 116.615 88.1113 117.496 85.8305 118.158L84.3148 118.598L85.9372 120.234C87.3017 121.609 87.4825 121.892 87.0737 122.012C86.8064 122.091 78.8585 123.695 69.4117 125.578L52.2355 129L49.3728 128.862C45.9769 128.699 44.1393 128.248 41.229 126.864C36.6877 124.703 33.3558 121.329 31.1505 116.657C29.7413 113.672 29.4209 112.103 29.2387 107.295L29.0737 102.936L23.999 108.023L18.9242 113.11L19.7049 113.681C22.032 115.383 22.8219 116.945 22.8211 119.844C22.8206 121.729 22.7196 122.246 22.1317 123.364C21.3393 124.872 19.4343 126.732 18.1193 127.28C15.8723 128.218 9.68656 128.944 3.93256 128.944H0.0564728V125.071C0.0564728 119.323 0.782288 113.143 1.72125 110.898C2.27063 109.584 4.13164 107.681 5.64132 106.889C6.76063 106.302 7.27747 106.201 9.16503 106.201C12.0668 106.2 13.6303 106.989 15.3339 109.314L15.9056 110.094L20.997 105.024L26.0885 99.954L21.7257 99.7891C16.8974 99.6066 15.3448 99.2884 12.3111 97.8586C7.62125 95.6487 4.22794 92.251 2.0031 87.5376C0.751587 84.8866 0.296677 82.9684 0.137924 79.6742L0 76.8143L3.4256 59.6545C5.30977 50.2166 6.91652 42.274 6.9959 42.0043C7.11066 41.6151 10.3871 44.7569 22.8542 57.2108L38.5675 72.9075L39.012 72.2609C39.7495 71.1877 41.2139 69.9522 42.4654 69.3466C43.3528 68.9174 44.3103 68.7398 46.3066 68.6345L48.9658 68.4944L48.0726 67.1944C46.5942 65.0419 45.9894 62.9271 45.9909 59.9145C45.992 57.6447 46.1052 56.9804 46.8805 54.6849C47.7184 52.2043 47.7497 51.9874 47.4327 50.8562L47.0965 49.6568L45.9084 50.7018C38.7842 56.9666 28.4486 56.4209 21.5488 49.4156L20.0094 47.8527L20.9632 46.7979C21.4879 46.2178 21.917 45.5442 21.917 45.3011C21.917 45.058 21.1332 43.6735 20.1752 42.2243L18.4336 39.5892L16.5333 39.2702C12.6193 38.6132 9.10205 36.1279 7.60226 32.9593C6.50871 30.6495 6.21307 28.899 6.38041 25.7249C6.65653 20.4909 8.05509 17.1596 11.3526 13.8808C14.3259 10.9243 17.9636 9.15923 22.5676 8.43878C23.4756 8.29682 23.7083 8.10806 24.3893 6.96199C25.8667 4.47591 28.8892 2.1986 32.1967 1.08009C35.748 -0.121094 41.9179 -0.324152 45.8348 0.631336C48.1801 1.20359 51.4517 2.80647 53.2044 4.24217C54.7849 5.53695 56.726 8.0454 57.5221 9.82196C57.8092 10.4626 58.4137 11.169 59.0229 11.5756C62.537 13.9224 64.2651 17.189 64.5133 21.955C64.7455 26.4165 63.5749 30.123 60.764 33.8254L59.4503 35.5559L60.4082 36.4903L61.3659 37.4248H65.8559H70.3462L70.201 36.5798C69.4687 32.3127 66.6643 8.17254 66.7715 7.05845C67.3266 1.29459 74.3896 -2.13919 78.2181 1.494C79.1937 2.41985 79.5287 3.12132 80.0736 5.38017C80.3235 6.41678 80.5613 7.26515 80.6019 7.26515C80.6423 7.26515 81.1859 7.03375 81.81 6.75088C83.1003 6.16588 84.7544 6.08398 86.2477 6.53092C87.5741 6.92793 89.4664 8.60257 89.8802 9.74578C90.0592 10.2403 90.2734 10.6451 90.3564 10.6451C90.4392 10.6451 91.4325 9.03651 92.5638 7.07015C95.6131 1.7696 95.953 1.32371 97.4835 0.611836C99.0962 -0.138514 100.767 -0.185834 102.202 0.478198ZM100.688 4.53207C101.356 4.99954 102.035 6.8775 102.242 8.83059C102.526 11.5044 101.756 13.836 99.2388 17.925C98.0508 19.8555 97.9946 19.7138 100.505 21.1222L101.802 21.8491L102.607 20.5419L103.413 19.2344L104.398 19.7367C105.408 20.2512 106.236 21.5361 106.236 22.5875C106.236 23.7887 105.37 24.953 101.971 28.3194L98.4328 31.8237L99.9191 33.3244L101.405 34.8248L102.774 33.4741L104.143 32.1237L104.793 32.7334C106.299 34.147 106.588 36.7641 105.443 38.6158C105.162 39.0695 103.536 40.4724 101.831 41.7332L98.7295 44.0256L99.4959 45.0801C99.9175 45.6602 100.479 46.4165 100.744 46.7607L101.226 47.3868L102.015 46.8257C102.448 46.5171 102.879 46.2646 102.971 46.2646C103.28 46.2646 104.143 48.4658 104.143 49.2546C104.143 50.4498 103.24 52.1752 102.323 52.7323C101.537 53.2099 93.3838 55.6245 92.5573 55.6245C91.7935 55.6245 83.5507 50.8759 83.341 50.3149C83.2296 50.0177 83.0048 49.1896 82.8411 48.4746C82.3744 46.4373 80.8575 43.5968 79.4209 42.0701C78.2782 40.8559 78.1421 40.5991 78.3721 40.0926C79.0693 38.5576 98.7888 4.75358 99.1524 4.47019C99.6948 4.04743 100.014 4.06043 100.688 4.53207ZM75.1857 4.33603C75.3556 4.45147 75.9852 6.5031 76.5845 8.89533C77.1836 11.2878 77.7785 13.2451 77.9063 13.2451C78.0341 13.2451 79.4227 12.6016 80.9925 11.8151C82.5623 11.0286 84.0668 10.3851 84.3362 10.3851C85.4711 10.3851 86.1266 11.3318 86.721 13.8298L87.2933 16.235L81.1125 26.8949C77.7132 32.7578 74.8528 37.6447 74.756 37.755C74.6595 37.8649 73.7218 31.0754 72.6725 22.6668C70.7863 7.55219 70.7699 7.36785 71.2263 6.4069C71.4801 5.87235 72.0237 5.1961 72.4341 4.90412C73.2654 4.31289 74.7115 4.01415 75.1857 4.33603ZM43.6474 4.52869C49.137 5.54267 53.0121 8.62493 54.1624 12.892C54.4161 13.8337 54.6256 14.0511 55.8633 14.6561C58.2787 15.8367 59.6848 17.8876 60.2211 21.0125C60.8051 24.4143 59.8248 28.1023 57.5286 31.1404L56.4692 32.5425L54.4525 30.5398L52.4362 28.537L53.2065 26.156C54.1202 23.3316 54.0687 21.9828 52.9689 19.9644C51.3728 17.0343 48.0136 15.8419 45.0788 17.164C44.4347 17.4542 43.3148 18.2742 42.5903 18.9863L41.2727 20.2808L39.7773 19.5968C37.793 18.6894 35.7194 18.5142 33.7451 19.0875C31.9612 19.6056 31.2307 20.0736 29.0188 22.1159C25.8301 25.0598 21.8733 26.6924 17.2977 26.9518L14.6302 27.1032L14.6453 29.0791C14.6533 30.1657 14.8665 31.8445 15.1184 32.8098C15.6485 34.8409 15.5457 34.9153 13.7667 33.7882C10.7655 31.8868 9.73548 27.5225 11.0885 22.4406C12.5974 16.774 17.6139 13.1029 24.6082 12.5467C25.7319 12.4573 26.6837 12.2566 26.7266 12.0998C27.5302 9.15819 29.1625 7.17935 31.901 5.82737C35.0432 4.27571 39.5697 3.77548 43.6474 4.52869ZM48.4084 21.0517C48.7368 21.1864 49.1776 21.7082 49.3879 22.2111C49.7528 23.0831 49.721 23.2768 48.6998 26.4121L47.6294 29.699L53.574 35.642L59.5182 41.5847H64.5172C69.8965 41.5847 71.561 41.8104 73.5446 42.8085C75.0892 43.5859 77.1079 45.5528 77.8472 47.0007C79.0667 49.3893 79.1711 50.4594 79.1669 60.5541C79.1628 70.7836 79.0363 72.0477 77.7639 74.5559C76.3185 77.4057 73.3062 79.7871 70.0833 80.6276C68.5929 81.0163 66.8659 81.0761 56.7799 81.0891C45.2628 81.1042 45.1816 81.1006 44.0279 80.5192C42.778 79.8895 41.6956 78.2305 41.6956 76.9443C41.6956 75.6581 42.778 73.999 44.0279 73.3693C45.1852 72.7861 45.2316 72.7843 58.0161 72.7843H70.843V70.7043V68.6244H68.8667H66.8904L67.0471 67.3894C67.5389 63.5113 68.7548 50.3315 68.632 50.2091C68.455 50.0323 64.7913 49.6241 64.6497 49.7652C64.5945 49.8206 64.1279 54.0864 63.6131 59.245L62.677 68.6244H58.8652H55.0534L53.314 66.8241C49.8288 63.2175 49.3471 60.539 51.194 55.0364L52.2207 51.9783L51.1427 48.7253L50.0651 45.4722L50.7206 43.8602C51.5906 41.7209 52.0952 39.2492 52.101 37.0998L52.1054 35.3448H50.0234H47.9415L47.937 36.7098C47.9248 40.4033 46.2957 44.2757 43.6178 46.977C39.1072 51.5267 32.1579 52.1213 26.7833 48.4174C25.7975 47.7378 25.7949 47.7315 25.9672 46.3536C26.0622 45.5933 26.064 44.5661 25.9711 44.0708C25.8774 43.5721 24.5372 41.2509 22.9684 38.8706C20.2468 34.7406 18.8805 32.0121 19.1644 31.2732C19.2381 31.0816 19.6263 30.9248 20.0274 30.9248C21.243 30.9248 24.4453 29.9285 26.4247 28.9346C28.819 27.7323 29.9968 26.9178 32.1181 24.9969C34.9225 22.4581 36.0748 22.3535 39.8739 24.2947L42.086 25.4249L44.298 23.2505C46.5479 21.039 47.3421 20.6142 48.4084 21.0517ZM10.143 50.4657C10.391 50.7135 10.4663 53.5612 10.4663 62.7074C10.4663 72.5664 10.5376 74.9724 10.8785 76.6302C12.3184 83.6293 17.3794 89.4004 24.0146 91.6088C25.656 92.1554 30.9715 93.064 32.5256 93.064C32.8153 93.064 32.535 93.493 31.6762 94.364L30.3945 95.664H25.1378C18.7457 95.664 16.6957 95.3341 13.5923 93.8055C10.4967 92.2809 7.60669 89.3937 6.08061 86.301C4.93684 83.9829 4.22038 81.0545 4.22038 78.6966C4.22038 77.4921 9.18949 51.6952 9.63061 50.6087C9.78129 50.2377 9.88564 50.2085 10.143 50.4657ZM26.1421 66.4781C36.7252 77.0558 37.5512 77.9463 37.9124 79.1659C38.4134 80.8575 39.6407 82.6985 40.7871 83.4785C41.2849 83.817 41.6927 84.155 41.6938 84.2294C41.6948 84.3037 40.5864 85.468 39.2306 86.8168L36.7658 89.2691L32.3992 88.8097C29.9976 88.557 27.3301 88.1725 26.4713 87.9551C22.3698 86.9169 18.1458 83.5061 16.3774 79.8042C14.7702 76.4401 14.6067 74.9498 14.6885 64.3981L14.7603 55.1022L26.1421 66.4781ZM89.571 59.0154C92.9294 60.8778 96.1994 62.8077 96.8378 63.3046C99.3679 65.2738 100.969 68.3173 101.21 71.6143C101.321 73.1293 101.078 74.8068 99.7619 81.6242L98.1804 89.8141L96.481 91.3741C95.5462 92.2321 94.1422 93.7452 93.3607 94.7363L91.9397 96.5389L93.6696 97.6982L95.3997 98.8575L96.0219 98.1059C99.5136 93.8877 101.979 91.874 106.45 89.5894C110.729 87.4026 111.946 85.9253 112.461 82.2911C112.597 81.3301 112.902 80.2501 113.137 79.8908C114.08 78.4538 119.682 75.3281 122.006 74.9428C123.75 74.6537 125.311 76.3424 124.814 77.9809C124.687 78.3987 119.113 85.4623 112.428 93.6779C101.128 107.564 100.174 108.663 98.8792 109.296C96.888 110.269 95.159 110.425 93.8343 109.75C89.5249 107.553 86.5803 97.5778 85.6278 81.9492L85.3228 76.9443H83.2811H81.2395L81.665 76.1219C83.1062 73.3376 83.1643 72.9128 83.3191 64.0118L83.4649 55.6295L89.571 59.0154ZM81.3624 81.6728C81.4636 84.1064 81.5003 86.1437 81.4435 86.2004C81.3868 86.2568 80.2376 85.825 78.8892 85.2405C77.5412 84.656 76.0383 84.0107 75.549 83.8063L74.66 83.4345L75.8184 82.7006C77.5443 81.607 78.876 80.3668 80.0908 78.7213L81.1781 77.2485L81.3624 81.6728ZM108.714 79.5364C108.609 79.7057 108.432 80.5793 108.32 81.4781C108.209 82.3766 107.921 83.4114 107.681 83.7777C107.306 84.3497 103.113 86.8155 103.113 86.4643C103.113 86.3268 103.809 82.8927 104.028 81.95C104.122 81.5462 104.704 81.0954 105.916 80.4893C108.059 79.4166 108.982 79.1022 108.714 79.5364ZM68.8852 87.7991C69.2893 93.727 70.1984 100.301 71.1053 103.854C71.3609 104.855 71.5477 105.699 71.5204 105.729C71.4931 105.759 66.8506 101.167 61.2038 95.5239L50.9366 85.2641H59.8245H68.7124L68.8852 87.7991ZM60.0429 100.344L74.0942 114.384H64.6502C53.9867 114.384 52.577 114.224 49.2427 112.637C46.639 111.397 43.7146 108.523 42.3993 105.911C41.1585 103.447 40.7736 101.802 40.2286 96.6307L39.7685 92.2677L42.7447 89.2858C44.3816 87.646 45.7817 86.3041 45.8561 86.3041C45.9306 86.3041 52.3146 92.622 60.0429 100.344ZM77.7395 89.31L82.1636 91.203L82.3692 92.5885C83.4794 100.068 85.5395 106.471 87.8856 109.733C88.3884 110.433 88.7999 111.17 88.7999 111.371C88.7999 111.573 88.4191 112.059 87.9541 112.452C86.1756 113.954 83.3977 114.702 81.6913 114.14C78.7667 113.175 76.1804 108.053 74.6483 100.191C73.9308 96.5098 73.0959 89.454 73.2305 88.206L73.3153 87.4169L77.7395 89.31ZM35.9702 96.5054C35.9702 98.0581 36.8798 103.368 37.4268 105.008C39.6373 111.637 45.414 116.693 52.4198 118.132C54.0793 118.472 56.4892 118.544 66.3759 118.544C76.3657 118.544 78.3766 118.604 78.6321 118.912C78.8747 119.204 78.8408 119.309 78.4689 119.418C76.5361 119.985 51.3931 124.784 50.3513 124.784C44.1268 124.784 37.9663 120.969 35.228 115.421C33.698 112.32 33.3678 110.272 33.3678 103.886V98.6345L34.669 97.354C35.5408 96.496 35.9702 96.216 35.9702 96.5054ZM10.7265 110.679C11.9895 111.31 12.5474 112.544 12.5477 114.709L12.5482 116.464H14.2481C17.0603 116.464 18.3691 117.328 18.7072 119.41C18.9208 120.724 18.0303 122.452 16.7772 123.156C15.6316 123.799 11.7388 124.422 7.23766 124.685L4.13918 124.865L4.31954 121.769C4.58186 117.272 5.20644 113.383 5.85003 112.239C6.4322 111.203 8.05301 110.224 9.18221 110.224C9.53068 110.224 10.2255 110.429 10.7265 110.679Z" stroke="black" stroke-width="7.09414" mask="url(#path-1-inside-1_233_11198)"/>
</g>
</svg>
