<svg width="86" height="185" viewBox="0 0 86 185" fill="none" xmlns="http://www.w3.org/2000/svg">
<path opacity="0.05" fill-rule="evenodd" clip-rule="evenodd" d="M30.2041 5.51441C19.575 11.0987 12.0022 18.4128 6.97504 27.9489C0.354248 40.5084 -0.966801 53.6585 3.04881 67.0285C6.07821 77.1149 12.2156 86.1518 20.3431 92.493L22.1757 93.923L30.129 116.841L38.0825 139.76L37.678 142.733C37.4554 144.368 37.2431 145.776 37.2058 145.864C37.1684 145.95 35.7267 146.755 34.0019 147.652C31.5645 148.919 30.7855 149.496 30.5051 150.244C30.3069 150.774 30.1991 151.364 30.2663 151.558C30.3333 151.751 31.9912 152.701 33.9498 153.668L37.5119 155.427L38.1095 159.05C39.0257 164.607 40.0723 164.881 44.1159 160.621L46.5762 158.029L50.1589 158.583C53.8844 159.159 55.4206 158.816 55.4724 157.398C55.4852 157.053 54.6874 155.294 53.6996 153.489L51.904 150.207L53.6247 146.976C54.9123 144.559 55.2654 143.514 55.0268 142.826C54.5086 141.333 54.3596 141.327 47.4761 142.534C46.3869 142.724 45.9985 142.501 43.8793 140.463L41.5037 138.179L34.3845 117.664L27.2652 97.1486L31.4701 99.0277C36.1182 101.105 41.1058 102.484 46.3142 103.133L49.7376 103.56L51.2347 107.874L52.7318 112.188L51.377 113.146C48.1001 115.464 45.7184 119.797 45.6103 123.638C45.536 126.27 46.6948 129.863 48.36 132.165C50.5667 135.217 55.2633 137.408 59.3123 137.275L61.4134 137.205L63.1036 142.076L64.7939 146.947L64.0661 152.282C63.5141 156.327 63.1605 157.729 62.6039 158.079C62.2001 158.333 59.747 159.631 57.1527 160.965C52.3672 163.424 51.6708 164.044 52.148 165.419C52.2531 165.722 54.8699 167.173 57.9631 168.644L63.5874 171.317L64.5814 177.317C65.4616 182.629 65.6655 183.387 66.357 183.928C66.7869 184.264 67.4604 184.427 67.8541 184.29C68.2481 184.154 70.401 182.083 72.6387 179.688L76.7073 175.334L82.7496 176.217C89.2191 177.163 90.4507 176.991 90.2944 175.159C90.2515 174.657 88.9624 171.996 87.4294 169.245L84.6423 164.244L87.4348 158.492C88.971 155.328 90.1704 152.574 90.1003 152.372C90.0301 152.17 89.5744 151.761 89.0872 151.462C88.3364 151.002 87.3134 151.093 82.3487 152.06C79.1295 152.688 76.407 153.157 76.2989 153.104C76.1903 153.051 74.3196 151.266 72.1415 149.138L68.1815 145.268L66.5801 140.654L64.9785 136.038L66.6599 134.797C69.9891 132.341 71.8518 129.01 72.2883 124.734C72.4308 123.338 72.2226 122.16 71.4067 119.748C70.475 116.995 70.1297 116.386 68.7047 114.99C67.8059 114.109 66.2986 112.944 65.3549 112.4C63.5512 111.362 59.6198 110.585 57.5294 110.855L56.2944 111.014L55.0292 107.368C54.3333 105.363 53.884 103.682 54.0312 103.634C54.1782 103.585 55.2577 103.479 56.4303 103.397C59.7684 103.164 65.3879 102.036 68.3994 100.993L71.1463 100.042L75.4592 112.47L79.7721 124.899L79.3243 128.148C78.8329 131.714 79.0956 131.398 74.7064 133.709C72.0248 135.121 71.5907 135.644 72.035 136.924C72.2736 137.611 73.1982 138.213 75.7063 139.313L79.0583 140.784L79.6818 144.472C80.0247 146.502 80.4879 148.376 80.7118 148.639C81.6309 149.721 83.0492 149.038 85.6168 146.278L88.0861 143.624L91.6234 144.135C97.4367 144.974 98.0888 144.111 95.3654 139.181L93.5901 135.966L95.2969 132.379C96.2354 130.406 96.9487 128.634 96.8817 128.441C96.8145 128.247 96.363 127.848 95.8784 127.552C95.1907 127.133 94.2316 127.159 91.5107 127.675C89.5929 128.038 87.9635 128.302 87.8897 128.261C87.8161 128.22 86.7841 127.25 85.5965 126.104L83.4376 124.021L79.0303 111.32L74.623 98.6204L77.1896 97.2519C81.2688 95.0769 83.5143 93.3894 83.7986 92.2856C84.1957 90.7425 83.2063 90.1909 79.9176 90.1216C65.3925 89.8156 51.9069 83.4651 43.2746 72.8655C29.5737 56.042 28.6833 32.8642 41.0575 15.1484C43.4226 11.7624 47.9233 7.0025 50.692 4.95933C52.7736 3.42315 53.3429 2.0786 52.3106 1.13575C50.8714 -0.178657 44.863 0.593207 37.1042 3.08932C33.8632 4.13209 30.7581 5.22335 30.2041 5.51441ZM33.0064 8.44162C32.5486 8.69536 31.0378 9.49012 29.6494 10.2083C24.178 13.0381 17.5991 18.8221 13.6789 24.2489C9.33462 30.2626 6.24711 37.8464 5.15731 45.1808L4.5961 48.9566L6.41968 48.791C12.2074 48.2651 18.2436 50.9972 22.1265 55.8999C24.3926 58.7611 26.2793 64.1394 26.3819 68.0298C26.5331 73.7406 23.9091 79.3961 19.5935 82.6609C18.4105 83.5559 17.4031 84.3548 17.3543 84.4364C17.3056 84.518 18.5015 85.7275 20.0119 87.1238C28.8188 95.268 41.3018 99.9982 53.2843 99.7318C58.8954 99.6074 62.2557 98.9795 68.0934 96.9651C71.116 95.922 74.0134 94.7793 74.5324 94.426C75.4614 93.7935 75.4293 93.7764 72.3815 93.2915C57.6804 90.9513 45.0164 82.9264 37.0367 70.8941C23.8981 51.0816 26.1352 25.1062 42.5091 7.34978C44.1256 5.59672 44.4357 5.07984 43.8808 5.06424C43.0261 5.0402 34.198 7.78193 33.0064 8.44162ZM4.65692 54.7662C4.74913 55.7813 4.83657 56.8913 4.85095 57.2324C4.86977 57.6802 5.36449 57.8657 6.62872 57.8993C9.06739 57.9641 11.9484 59.165 13.7154 60.8533C17.0609 64.0495 17.8081 68.2552 15.7673 72.3982C15.0643 73.8252 13.9594 75.3525 13.1301 76.0437L11.7023 77.233L13.0455 79.1793C14.3765 81.1087 14.3992 81.1216 15.6325 80.6552C16.3165 80.3966 17.6044 79.4918 18.4938 78.6454C25.3802 72.0909 23.1599 59.1043 14.3089 54.1686C12.1906 52.9872 8.1297 52.2761 5.82829 52.6835C4.48958 52.9203 4.48934 52.9208 4.65692 54.7662ZM6.24281 64.617C6.91814 67.3227 9.55777 73.9819 9.90679 73.8608C9.99396 73.8305 10.5859 73.2688 11.2227 72.6122C12.4876 71.3081 13.2693 68.8918 13.0291 67.0281C12.6832 64.3484 9.55104 61.7191 6.7133 61.7262L5.5221 61.7291L6.24281 64.617ZM53.0054 116.697C51.2852 118.068 50.0723 120.079 49.6093 122.328C49.2539 124.055 49.3281 124.689 50.171 127.118C51.0138 129.546 51.3481 130.09 52.6971 131.226C57.5477 135.31 64.884 133.656 67.5831 127.872C68.9838 124.869 68.6481 121.366 66.698 118.637C63.5946 114.293 57.1654 113.382 53.0054 116.697ZM41.1502 145.746C40.9776 146.984 40.6984 148.17 40.5291 148.381C40.3603 148.593 39.4065 149.167 38.4096 149.656L36.5975 150.547L38.6217 151.536L40.6462 152.525L41.2257 154.895C41.5443 156.199 41.875 157.241 41.9608 157.211C42.0469 157.181 42.8325 156.442 43.7068 155.568L45.2966 153.98L47.6892 154.359L50.0816 154.738L49.5666 153.862C47.6067 150.53 47.635 150.723 48.7433 148.269L49.7794 145.977L47.9171 146.361C45.1999 146.923 44.9862 146.866 43.1439 145.103L41.4634 143.495L41.1502 145.746ZM82.7791 131.315C82.518 133.704 82.2443 134.074 79.8601 135.268L78.1058 136.147L80.3395 137.305C82.7322 138.546 82.6347 138.375 83.1629 142.251L83.3061 143.303L84.9352 141.477L86.5643 139.65L88.8056 139.914C90.0382 140.059 91.1329 140.147 91.2378 140.111C91.343 140.074 91.0524 139.337 90.5923 138.473C89.3227 136.089 89.3017 135.693 90.3319 133.551L91.2852 131.569L89.3109 131.992C86.8064 132.529 86.6946 132.497 84.802 130.682C83.9355 129.851 83.1766 129.188 83.1157 129.209C83.0547 129.23 82.9033 130.178 82.7791 131.315ZM67.5446 155.268C67.1994 157.792 66.8127 159.984 66.6856 160.139C66.5586 160.293 64.5936 161.371 62.3191 162.535L58.1839 164.65L62.4998 166.72C65.6321 168.222 66.8965 169.028 67.1112 169.659C67.2733 170.138 67.6703 172.246 67.9926 174.344C68.3149 176.442 68.661 178.13 68.7609 178.096C68.8612 178.061 70.3765 176.521 72.1277 174.673L75.312 171.314L79.9265 171.977C82.4649 172.341 84.5843 172.552 84.6366 172.446C84.7198 172.277 82.3546 167.794 80.8019 165.178C80.3248 164.374 80.5041 163.768 82.3638 159.897L84.4652 155.524L80.0091 156.377C76.9949 156.953 75.3223 157.101 74.841 156.832C74.4493 156.614 72.7885 155.141 71.1509 153.557L68.1725 150.678L67.5446 155.268Z" fill="black"/>
</svg>
