<svg width="120" height="168" viewBox="0 0 120 168" fill="none" xmlns="http://www.w3.org/2000/svg">
<path opacity="0.05" fill-rule="evenodd" clip-rule="evenodd" d="M66.8579 0.278037C66.1521 0.455477 64.6039 1.06995 63.4174 1.64367C61.4976 2.57195 59.859 4.08446 48.5607 15.3562C37.2149 26.6756 35.8617 28.1358 35.8636 29.0572C35.8666 30.5868 36.8381 31.6074 38.2916 31.6074C39.4326 31.6074 40.0951 31.0028 51.8498 19.2352C65.0568 6.01462 65.6246 5.55294 69.3377 5.01537C74.3677 4.28753 78.6746 8.64534 77.996 13.7757C77.6254 16.5769 76.684 18.1614 73.2219 21.8121C69.6811 25.5459 68.6018 27.2835 67.9956 30.2267C66.8039 36.0122 70.8171 41.503 76.7531 42.2082C78.5943 42.4267 81.9401 41.6575 83.678 40.6155C84.3235 40.2287 88.8329 35.9524 93.6987 31.1132C101.218 23.6348 102.841 22.1781 104.512 21.4082C110.801 18.5107 117.037 22.5399 116.37 29.0691C116.024 32.4529 115.358 33.3555 106.841 41.9749C102.457 46.4115 98.4771 50.6731 97.9964 51.4453C96.8001 53.3656 96.0416 56.4839 96.308 58.3835C96.6176 60.5874 97.9663 63.1642 99.4991 64.4802C101.386 66.1002 103.559 66.7525 106.438 66.5629C109.509 66.3611 111.451 65.352 114.784 62.2258C118.081 59.134 119.56 58.3612 122.561 58.1647C124.451 58.0408 125.178 58.1443 126.48 58.722C128.591 59.6581 129.193 60.2342 130.113 62.1995C131.105 64.3189 131.134 66.9269 130.193 69.4982C129.544 71.2686 128.611 72.2919 116.686 84.2974C109.64 91.391 103.774 97.1946 103.651 97.1946C103.528 97.1946 102.404 95.9118 101.154 94.3441L98.8821 91.4936L99.4503 89.6617C100.775 85.3913 100.468 80.7568 98.6052 76.9395C96.3076 72.2301 85.663 65.2692 68.3193 57.1345C62.2844 54.304 61.8695 54.1953 60.6811 55.1327C59.4795 56.0807 59.5048 57.0691 60.9386 65.1936C63.4577 79.4641 65.6593 88.3124 67.6994 92.365C70.6602 98.2475 77.9311 102.349 84.2403 101.696L85.9668 101.517L88.9318 105.35L91.8972 109.184L81.985 119.139C73.4457 127.715 71.7785 129.24 69.9491 130.149C68.1414 131.047 67.4762 131.202 65.4788 131.191C63.4584 131.18 62.9118 131.041 61.5491 130.197C60.5753 129.593 59.5851 128.596 58.9746 127.606C58.0879 126.167 57.9864 125.734 58.0142 123.507C58.0562 120.169 58.8131 118.572 61.9472 115.211C63.4446 113.606 64.809 111.767 65.3068 110.684C66.2898 108.545 66.6004 105.38 66.0273 103.343C64.7583 98.833 59.9049 95.8947 55.2677 96.8286C51.9232 97.5022 50.779 98.3483 43.4019 105.602C37.154 111.745 36.1408 112.611 34.4599 113.242C28.1776 115.599 22.3562 111.416 23.2114 105.158C23.6744 101.772 24.6358 100.456 32.3864 92.6006C36.4023 88.531 40.004 84.6713 40.3907 84.024C41.4785 82.2029 42.1964 78.9515 41.9402 77.0082C41.1512 71.0298 36.0248 67.2365 30.1724 68.3008C27.2145 68.8387 25.3872 69.9447 21.8634 73.3299C20.1032 75.0205 17.9996 76.7433 17.1886 77.1577C15.3668 78.0889 11.5006 78.4287 9.90491 77.7978C5.69537 76.1331 3.98758 71.5706 5.76222 66.7301C6.41231 64.9567 7.37598 63.9049 20.0157 51.1752C31.7884 39.3182 33.5719 37.3933 33.5719 36.5436C33.5719 34.506 31.7704 33.3266 30.0466 34.2362C29.5528 34.4968 23.2354 40.6733 16.0084 47.9619C3.99872 60.0738 2.76866 61.4168 1.70669 63.573C-4.03763 75.2357 5.58298 86.5817 17.6778 82.4086C20.368 81.4807 21.5462 80.6605 25.1296 77.2234C26.8839 75.5407 28.8329 73.9487 29.4607 73.6854C31.969 72.6346 34.9786 73.3726 36.188 75.3347C37.0052 76.6605 37.0698 79.3718 36.3201 80.8636C36.0294 81.4419 32.5817 85.1681 28.6586 89.1441C24.7354 93.1201 21.0597 97.1125 20.4902 98.0161C17.9743 102.009 17.4383 107.811 19.2247 111.71C22.291 118.404 30.1675 120.855 37.4738 117.388C39.6472 116.357 40.6243 115.52 46.8123 109.389C54.2683 102.002 54.9056 101.565 57.7655 101.889C60.434 102.19 61.8994 104.717 61.11 107.657C60.8515 108.62 60.0359 109.781 58.3468 111.593C57.0286 113.006 55.5426 114.86 55.0446 115.713C52.3469 120.329 52.2119 126.42 54.7189 130.402C58.5729 136.525 67.1109 138.133 73.7111 133.979C74.6122 133.412 79.7339 128.569 85.0929 123.216C91.1413 117.175 94.9491 113.604 95.1333 113.8C95.2961 113.975 98.0456 117.74 101.243 122.168C104.44 126.596 107.432 130.625 107.893 131.122C108.963 132.277 110.495 132.338 111.5 131.265C112.911 129.758 112.692 129.347 104.315 117.81C99.9716 111.828 96.3519 106.761 96.2709 106.55C96.0422 105.952 100.742 102.286 101.273 102.647C102.238 103.305 145.236 154.065 145.625 155.005C146.204 156.408 145.909 159.427 145.084 160.544C142.815 163.617 138.82 163.968 136.139 161.33C135.462 160.665 130.835 154.476 125.857 147.578C118.21 136.983 116.655 135.003 115.838 134.824C114.199 134.462 112.867 135.609 112.867 137.383C112.867 138.342 130.863 163.416 132.887 165.276C135.184 167.387 136.855 168.007 140.227 168C142.63 167.995 143.458 167.854 144.695 167.242C148.172 165.523 150.59 162.202 151.049 158.52C151.312 156.414 150.563 153.118 149.435 151.413C149.016 150.78 139.283 139.26 127.804 125.812L106.935 101.362L120.01 88.1886C131.965 76.1433 133.185 74.8125 134.247 72.6553C138.538 63.943 134.362 54.7092 125.418 53.129C120.769 52.3078 116.083 54.0628 111.462 58.3562C107.511 62.027 105.068 62.6013 102.645 60.4297C101.275 59.203 100.982 56.573 101.996 54.6172C102.364 53.9077 106.009 50.0004 110.096 45.9341C114.183 41.8678 118.106 37.6598 118.813 36.583C124.734 27.5657 119.905 16.2365 109.815 15.4712C106.926 15.252 104.687 15.7098 101.727 17.1257C99.8857 18.0056 98.3739 19.3555 90.5859 27.0705C85.63 31.9801 81.1032 36.2367 80.5265 36.5294C79.0412 37.2839 76.337 37.2201 75.0132 36.3996C73.0426 35.1783 72.3211 32.1677 73.3864 29.6109C73.6583 28.958 75.1912 27.0774 76.7925 25.4319C80.2339 21.8952 81.524 19.9512 82.4477 16.9098C84.4137 10.4365 81.5384 3.72991 75.6351 1.01967C73.5607 0.0670799 69.1716 -0.303573 66.8579 0.278037ZM140.034 33.0848C135.396 34.573 132.097 38.4136 131.182 43.3905C130.168 48.9098 133.268 54.6675 138.69 57.3379C140.372 58.1663 140.892 58.2564 143.996 58.2564C147.019 58.2564 147.655 58.1528 149.238 57.403C154.264 55.023 157.589 49.2713 156.913 44.1268C155.823 35.8345 147.807 30.5908 140.034 33.0848ZM142.193 37.6825C139.792 38.3068 137.547 40.2103 136.64 42.3912C136.36 43.0632 136.132 44.4357 136.132 45.4412C136.132 49.9554 139.48 53.3031 143.996 53.3031C149.452 53.3031 153.035 48.3828 151.531 42.9554C151.112 41.4412 149.176 39.1828 147.612 38.3827C146.181 37.6506 143.599 37.3167 142.193 37.6825ZM65.5073 62.1173C65.5977 62.5241 66.1213 65.3704 66.6712 68.4427C68.8747 80.7578 71.0308 88.5168 73.077 91.4965C74.5257 93.6058 77.4262 95.6443 79.7863 96.2122C82.4241 96.8467 86.1375 96.503 88.2922 95.4249C90.7484 94.1962 92.9697 91.9276 94.0841 89.5089C94.8941 87.7515 95.0094 87.1118 95.0094 84.3795C95.0094 81.6354 94.9 81.0341 94.1037 79.4089C92.9716 77.0966 90.077 74.7176 83.8438 70.9759C80.0383 68.6912 66.0912 61.378 65.5401 61.378C65.4316 61.378 65.4172 61.7105 65.5073 62.1173ZM95.1614 96.7228C94.7175 97.2015 93.6906 98.0451 92.8796 98.5971C92.0686 99.1495 91.3563 99.6387 91.2966 99.6841C91.1659 99.7843 91.7033 100.74 92.3746 101.6C92.8435 102.202 92.9631 102.15 95.324 100.337C97.9479 98.3214 97.9391 98.3487 96.5632 96.6058L95.9688 95.8527L95.1614 96.7228ZM38.5806 131.826C35.0396 132.984 31.5588 136.192 30.2507 139.502C29.1963 142.171 29.1982 146.53 30.2553 149.206C31.3045 151.862 34.0185 154.721 36.7896 156.089C38.8074 157.085 39.2022 157.163 42.2482 157.163C45.2647 157.163 45.7123 157.077 47.7517 156.108C50.4386 154.832 52.8168 152.493 54.1068 149.857C54.9541 148.126 55.0341 147.65 55.0341 144.348C55.0341 141.045 54.9541 140.57 54.1068 138.839C52.8112 136.192 50.4376 133.86 47.7576 132.603C45.9109 131.736 45.0796 131.548 42.7522 131.469C41.0218 131.41 39.4368 131.546 38.5806 131.826ZM39.9179 136.766C37.9564 137.382 36.4302 138.681 35.3656 140.643C31.697 147.403 39.1288 154.964 45.9715 151.434C48.699 150.027 50.1024 147.619 50.1007 144.348C50.0988 140.57 48.102 137.837 44.571 136.781C42.6421 136.204 41.7203 136.201 39.9179 136.766Z" fill="black"/>
</svg>
