<svg width="112" height="151" viewBox="0 0 112 151" fill="none" xmlns="http://www.w3.org/2000/svg">
<path opacity="0.05" fill-rule="evenodd" clip-rule="evenodd" d="M20.7059 14.7625L19.951 15.6736L21.3014 23.002L22.6518 30.3304L16.2872 31.5031C9.97776 32.6658 9.91652 32.6833 9.23704 33.5218L8.55138 34.3673L10.6262 46.0878L12.7013 57.8079L11.2865 58.0686C5.49707 59.1354 0.809202 65.2362 0.877005 71.616C0.891378 72.965 2.21022 80.5258 5.23593 96.6058L9.57398 119.661L10.5828 121.265C12.8189 124.818 16.2669 127.256 20.1672 128.04C21.9134 128.391 22.3195 128.346 31.061 126.823L40.141 125.242L42.3392 137.172C43.5482 143.733 44.6574 149.296 44.8036 149.535C45.571 150.785 44.5619 150.935 82.5697 143.931C120.578 136.927 119.581 137.147 119.853 135.706C119.904 135.431 118.958 129.837 117.749 123.276L115.55 111.347L124.598 109.588C133.308 107.894 133.703 107.792 135.21 106.841C138.577 104.717 141.051 101.041 141.774 97.0903L142.112 95.2387L137.884 71.8053C133.295 46.3757 133.283 46.3288 131.117 43.5007C128.274 39.7869 122.802 37.5198 118.567 38.3003L117.152 38.561L114.913 26.871L112.674 15.1808L111.732 14.6352C110.799 14.094 110.735 14.0994 104.426 15.262L98.0612 16.4348L96.7286 9.20277L95.396 1.97073L94.3928 1.28397L93.3897 0.597215L57.4252 7.22432L21.4604 13.8515L20.7059 14.7625ZM25.3965 18.0946C25.3091 18.2207 26.7162 26.3485 28.5235 36.1565L31.8094 53.9887L64.8759 47.8956L97.942 41.8026L94.5594 23.8638L91.1765 5.9251L58.366 11.8953C40.32 15.1788 25.4839 17.9684 25.3965 18.0946ZM15.7642 46.6579L17.5976 56.6075L22.3832 55.7256L27.1688 54.8438L25.3354 44.8942L23.502 34.9446L18.7164 35.8265L13.9308 36.7083L15.7642 46.6579ZM100.745 30.9987L102.578 40.9483L107.364 40.0664L112.149 39.1846L110.316 29.235L108.483 19.2854L103.697 20.1673L98.9115 21.0491L100.745 30.9987ZM10.7195 63.2214C8.22112 64.5184 6.16733 67.2352 5.79474 69.7359C5.63543 70.8047 5.80335 72.3458 6.4775 76.0044L7.37145 80.8557L68.8592 69.5255L130.347 58.1953L129.453 53.344C128.415 47.7125 127.926 46.5984 125.734 44.8838C124.954 44.273 123.581 43.5454 122.685 43.2675L121.055 42.7618L66.2296 52.814C36.0754 58.3427 11.0958 63.0259 10.7195 63.2214ZM11.2423 101.862L14.2629 118.255L15.4956 119.883C16.3372 120.995 17.25 121.786 18.3736 122.377C21.0761 123.797 22.0404 123.775 31.2169 122.084L39.2851 120.598L37.0296 108.357L34.774 96.1164L35.3248 95.1782L35.8758 94.2399L72.1805 87.5501L108.485 80.8603L109.335 81.5405L110.183 82.2208L112.439 94.4614L114.695 106.702L122.763 105.215C131.939 103.524 132.848 103.201 134.867 100.911C135.706 99.9584 136.277 98.8942 136.667 97.5554L137.238 95.5945L134.218 79.2019L131.197 62.8096L69.7094 74.1398L8.22172 85.47L11.2423 101.862ZM43.8991 119.598C46.0474 131.257 47.8535 140.786 47.9126 140.775C47.9718 140.764 50.6693 135.905 53.9065 129.976C59.8408 119.109 60.2339 118.544 61.7909 118.641C62.1937 118.667 64.8558 120.642 68.2787 123.456C73.7952 127.991 74.1032 128.198 74.4762 127.62C74.6923 127.285 77.0093 123.061 79.6253 118.233C82.2413 113.405 84.6465 109.104 84.9705 108.675C85.8944 107.453 87.193 107.37 88.6681 108.441C89.3439 108.932 95.0325 113.553 101.31 118.71C107.587 123.868 113.012 128.299 113.366 128.557C113.994 129.015 113.912 128.492 110.066 107.621L106.121 86.216L73.0573 92.3086L39.9932 98.4013L43.8991 119.598ZM65.9188 103.783C64.7231 104.535 63.8267 105.68 63.2952 107.135C61.6922 111.521 65.7931 116.306 70.4247 115.453C73.1522 114.95 75.4968 112.205 75.6073 109.386C75.7668 105.317 72.1684 102.283 68.1244 103.077C67.2593 103.246 66.2668 103.564 65.9188 103.783ZM68.1052 108.154C67.406 108.752 67.7967 110.161 68.7751 110.569C69.5274 110.883 69.6342 110.863 70.2253 110.302C70.9205 109.641 70.8836 108.31 70.1564 107.812C69.6581 107.471 68.7224 107.627 68.1052 108.154ZM85.3166 117.822C77.1703 132.666 72.9419 140.505 72.9774 140.698C72.9999 140.82 81.7629 139.309 92.4508 137.339C103.139 135.37 111.871 133.69 111.855 133.607C111.826 133.447 89.6914 115.253 88.3454 114.282L87.5675 113.721L85.3166 117.822ZM56.8659 134.569C53.9 139.992 51.4918 144.529 51.5145 144.651C51.5371 144.774 54.9465 144.25 59.0905 143.487L66.6254 142.098L69.2206 137.307L71.816 132.515L67.037 128.613L62.2583 124.71L56.8659 134.569Z" fill="black"/>
</svg>
