<svg width="111" height="164" viewBox="0 0 111 164" fill="none" xmlns="http://www.w3.org/2000/svg">
<path opacity="0.05" fill-rule="evenodd" clip-rule="evenodd" d="M1.02261 50.2237L0.707443 51.0749L26.4492 106.763L52.191 162.45L53.0436 162.762L53.896 163.074L106.716 138.657L159.536 114.241L159.851 113.39L160.166 112.539L134.424 56.8509L108.683 1.16317L107.83 0.851765L106.978 0.540018L54.1575 24.9562L1.33743 49.3724L1.02261 50.2237ZM30.2545 105.004L54.7819 158.064L104.964 134.867L155.147 111.67L130.619 58.6099L106.092 5.54938L55.9095 28.7463L5.72717 51.9431L30.2545 105.004ZM21.6051 59.5279L21.2528 60.2401L34.8014 89.7238C42.2531 105.94 48.5213 119.422 48.7306 119.685C48.9402 119.948 49.42 120.276 49.7972 120.414C50.4748 120.662 50.9693 120.44 89.8247 102.479C111.463 92.477 129.309 84.147 129.483 83.9683C130.397 83.031 130.751 83.8721 116.343 52.7033C101.935 21.5345 102.347 22.3487 101.04 22.4375C100.791 22.4546 82.8957 30.6465 61.2723 40.6419C22.9181 58.3713 21.9486 58.8329 21.6051 59.5279ZM38.1243 87.0597L49.976 112.699L50.5912 110.98C50.9296 110.035 53.4003 102.556 56.0817 94.3587C58.7631 86.1619 61.1545 79.1917 61.3956 78.8692C61.6372 78.5468 62.1179 78.2291 62.4643 78.163C62.8334 78.093 66.5134 79.4468 71.3548 81.4341L79.6157 84.825L79.7075 84.0313C79.758 83.5948 80.5268 76.6625 81.4158 68.6258C82.6042 57.8843 83.1613 53.8597 83.5196 53.4314C84.7209 51.9952 84.1985 51.71 104.129 64.694C114.271 71.3009 122.614 76.6848 122.672 76.6584C122.729 76.6319 117.651 65.5245 111.388 51.9751L100 27.3398L63.1363 44.3802L26.2725 61.4205L38.1243 87.0597ZM39.3128 60.1035C33.9472 65.0893 35.4768 73.4463 42.2049 75.9052C44.8522 76.8727 46.7791 76.7824 49.4093 75.5675C50.9841 74.8404 51.5104 74.4591 52.461 73.3584C53.8362 71.7663 54.7364 69.4231 54.8292 67.1947C54.889 65.7612 54.7811 65.3329 53.8562 63.332C52.9387 61.3472 52.6639 60.9588 51.5263 60.0395C49.9 58.725 47.499 57.8569 45.4483 57.8417C43.4997 57.8274 40.6193 58.8892 39.3128 60.1035ZM41.727 63.6314C39.8555 65.7767 39.8111 68.5468 41.6155 70.5925C43.1508 72.3334 45.3687 72.7971 47.5362 71.8306C51.3389 70.1348 51.6305 64.8077 48.0334 62.7448C46.0538 61.6095 43.1326 62.02 41.727 63.6314ZM85.1214 73.4606C84.1935 81.9315 83.3049 88.7364 83.0794 89.0959C82.2485 90.423 81.6495 90.2775 72.8214 86.6056C68.2396 84.6997 64.4122 83.1769 64.3159 83.2214C64.2198 83.2658 61.8484 90.2806 59.0463 98.8101L53.9518 114.318L71.3198 106.363C80.8726 101.988 96.485 94.7712 106.014 90.3254L123.341 82.2427L105.142 70.3867C95.1331 63.8659 86.9032 58.5153 86.8541 58.4963C86.8047 58.4775 86.0251 65.2115 85.1214 73.4606Z" fill="black"/>
</svg>
