<svg width="10" height="10" viewBox="0 0 10 10" fill="none" xmlns="http://www.w3.org/2000/svg">
<mask id="path-1-inside-1_233_11129" fill="white">
<path d="M0 5C0 2.23858 2.23858 0 5 0C7.76142 0 10 2.23858 10 5C10 7.76142 7.76142 10 5 10C2.23858 10 0 7.76142 0 5Z"/>
</mask>
<path d="M5 7C3.89543 7 3 6.10457 3 5H-3C-3 9.41828 0.581722 13 5 13L5 7ZM7 5C7 6.10457 6.10457 7 5 7L5 13C9.41828 13 13 9.41828 13 5L7 5ZM5 3C6.10457 3 7 3.89543 7 5L13 5C13 0.581722 9.41828 -3 5 -3V3ZM5 -3C0.581722 -3 -3 0.581722 -3 5H3C3 3.89543 3.89543 3 5 3V-3Z" fill="#F9A317" mask="url(#path-1-inside-1_233_11129)"/>
</svg>
