<svg width="10" height="14" viewBox="0 0 10 14" fill="none" xmlns="http://www.w3.org/2000/svg">
<path d="M4.64279 0.5C7.20301 0.5 9.28564 2.68702 9.28564 5.375C9.28564 8.97148 5.00198 13.2461 4.8196 13.4265C4.76974 13.4754 4.70626 13.5 4.64279 13.5C4.57931 13.5 4.51583 13.4754 4.46595 13.4265C4.2836 13.2461 -6.96182e-05 8.97148 -6.96182e-05 5.375C-6.96182e-05 2.68702 2.08257 0.5 4.64279 0.5ZM4.64279 8.08334C6.06498 8.08334 7.22216 6.8683 7.22216 5.375C7.22216 3.8817 6.06495 2.66666 4.64279 2.66666C3.22062 2.66666 2.06341 3.88173 2.06341 5.375C2.06341 6.86827 3.2206 8.08334 4.64279 8.08334Z" fill="#2D2D2D"/>
</svg>
