<svg width="212" height="54" viewBox="0 0 212 54" fill="none" xmlns="http://www.w3.org/2000/svg">
<path d="M69.4203 20.9854V23.2302C69.4203 24.598 69.0804 25.652 68.4007 26.3922C67.7372 27.1164 66.75 27.4784 65.4392 27.4784C64.1283 27.4784 63.1331 27.1164 62.4534 26.3922C61.7898 25.652 61.4581 24.598 61.4581 23.2302V14.4441C61.4581 13.0763 61.7898 12.0304 62.4534 11.3062C63.1331 10.566 64.1283 10.1959 65.4392 10.1959C66.75 10.1959 67.7372 10.566 68.4007 11.3062C69.0804 12.0304 69.4203 13.0763 69.4203 14.4441V16.0855H66.8957V14.2752C66.8957 13.6637 66.7662 13.2373 66.5073 12.9959C66.2645 12.7384 65.9328 12.6097 65.512 12.6097C65.0912 12.6097 64.7514 12.7384 64.4924 12.9959C64.2497 13.2373 64.1283 13.6637 64.1283 14.2752V23.3992C64.1283 24.0107 64.2497 24.4371 64.4924 24.6785C64.7514 24.9198 65.0912 25.0405 65.512 25.0405C65.9328 25.0405 66.2645 24.9198 66.5073 24.6785C66.7662 24.4371 66.8957 24.0107 66.8957 23.3992V20.9854H69.4203Z" fill="#35160B"/>
<path d="M73.7107 17.5096H77.3762V19.9234H73.7107V24.8716H78.3229V27.2853H71.0404V10.389H78.3229V12.8028H73.7107V17.5096Z" fill="#35160B"/>
<path d="M79.2008 10.389H87.4543V12.8028H84.6626V27.2853H81.9924V12.8028H79.2008V10.389Z" fill="#35160B"/>
<path d="M88.6303 27.2853V10.389H91.3005V16.7372H92.5628C93.906 16.7372 94.9013 17.0912 95.5486 17.7993C96.2121 18.5073 96.5439 19.5452 96.5439 20.913V23.1095C96.5439 24.4773 96.2121 25.5152 95.5486 26.2233C94.9013 26.9313 93.906 27.2853 92.5628 27.2853H88.6303ZM92.5628 24.8716C92.9836 24.8716 93.3072 24.7589 93.5338 24.5336C93.7604 24.3083 93.8736 23.89 93.8736 23.2785V20.744C93.8736 20.1326 93.7604 19.7142 93.5338 19.4889C93.3072 19.2636 92.9836 19.151 92.5628 19.151H91.3005V24.8716H92.5628Z" fill="#35160B"/>
<path d="M106.663 25.3785H105.668C104.325 25.3785 103.322 25.0244 102.658 24.3164C102.011 23.6084 101.687 22.5704 101.687 21.2027V16.5924C101.687 15.2246 102.011 14.1867 102.658 13.4786C103.322 12.7706 104.325 12.4166 105.668 12.4166H106.663V10.389H109.285V12.4166H110.28C111.624 12.4166 112.619 12.7706 113.266 13.4786C113.93 14.1867 114.262 15.2246 114.262 16.5924V21.2027C114.262 22.5704 113.93 23.6084 113.266 24.3164C112.619 25.0244 111.624 25.3785 110.28 25.3785H109.285V27.2853H106.663V25.3785ZM109.285 14.7579V23.0612H110.28C110.701 23.0612 111.025 22.9325 111.251 22.675C111.494 22.4176 111.616 21.9831 111.616 21.3716V16.4234C111.616 15.8119 111.494 15.3855 111.251 15.1441C111.025 14.8867 110.701 14.7579 110.28 14.7579H109.285ZM106.663 14.7579H105.668C105.247 14.7579 104.916 14.8867 104.673 15.1441C104.446 15.3855 104.333 15.8119 104.333 16.4234V21.3716C104.333 21.9831 104.446 22.4176 104.673 22.675C104.916 22.9325 105.247 23.0612 105.668 23.0612H106.663V14.7579Z" fill="#35160B"/>
<path d="M118.51 23.3992C118.51 24.0107 118.631 24.4451 118.874 24.7026C119.133 24.944 119.473 25.0647 119.894 25.0647C120.314 25.0647 120.646 24.944 120.889 24.7026C121.148 24.4451 121.277 24.0107 121.277 23.3992V14.2752C121.277 13.6637 121.148 13.2373 120.889 12.9959C120.646 12.7384 120.314 12.6097 119.894 12.6097C119.473 12.6097 119.133 12.7384 118.874 12.9959C118.631 13.2373 118.51 13.6637 118.51 14.2752V23.3992ZM115.84 14.4441C115.84 13.0763 116.188 12.0304 116.883 11.3062C117.579 10.566 118.583 10.1959 119.894 10.1959C121.204 10.1959 122.208 10.566 122.904 11.3062C123.599 12.0304 123.947 13.0763 123.947 14.4441V23.2302C123.947 24.598 123.599 25.652 122.904 26.3922C122.208 27.1164 121.204 27.4784 119.894 27.4784C118.583 27.4784 117.579 27.1164 116.883 26.3922C116.188 25.652 115.84 24.598 115.84 23.2302V14.4441Z" fill="#35160B"/>
<path d="M124.906 10.389H133.159V12.8028H130.368V27.2853H127.698V12.8028H124.906V10.389Z" fill="#35160B"/>
<path d="M136.787 23.3992C136.787 24.0107 136.909 24.4451 137.151 24.7026C137.41 24.944 137.75 25.0647 138.171 25.0647C138.592 25.0647 138.923 24.944 139.166 24.7026C139.425 24.4451 139.555 24.0107 139.555 23.3992V14.2752C139.555 13.6637 139.425 13.2373 139.166 12.9959C138.923 12.7384 138.592 12.6097 138.171 12.6097C137.75 12.6097 137.41 12.7384 137.151 12.9959C136.909 13.2373 136.787 13.6637 136.787 14.2752V23.3992ZM134.117 14.4441C134.117 13.0763 134.465 12.0304 135.161 11.3062C135.857 10.566 136.86 10.1959 138.171 10.1959C139.482 10.1959 140.485 10.566 141.181 11.3062C141.877 12.0304 142.225 13.0763 142.225 14.4441V23.2302C142.225 24.598 141.877 25.652 141.181 26.3922C140.485 27.1164 139.482 27.4784 138.171 27.4784C136.86 27.4784 135.857 27.1164 135.161 26.3922C134.465 25.652 134.117 24.598 134.117 23.2302V14.4441Z" fill="#35160B"/>
<path d="M151.704 20.9854V23.2302C151.704 24.598 151.364 25.652 150.684 26.3922C150.021 27.1164 149.033 27.4784 147.723 27.4784C146.412 27.4784 145.417 27.1164 144.737 26.3922C144.073 25.652 143.742 24.598 143.742 23.2302V14.4441C143.742 13.0763 144.073 12.0304 144.737 11.3062C145.417 10.566 146.412 10.1959 147.723 10.1959C149.033 10.1959 150.021 10.566 150.684 11.3062C151.364 12.0304 151.704 13.0763 151.704 14.4441V16.0855H149.179V14.2752C149.179 13.6637 149.05 13.2373 148.791 12.9959C148.548 12.7384 148.216 12.6097 147.795 12.6097C147.375 12.6097 147.035 12.7384 146.776 12.9959C146.533 13.2373 146.412 13.6637 146.412 14.2752V23.3992C146.412 24.0107 146.533 24.4371 146.776 24.6785C147.035 24.9198 147.375 25.0405 147.795 25.0405C148.216 25.0405 148.548 24.9198 148.791 24.6785C149.05 24.4371 149.179 24.0107 149.179 23.3992V20.9854H151.704Z" fill="#35160B"/>
<path d="M161.966 27.2853H159.271L158.81 24.2198H155.533L155.072 27.2853H152.62L155.339 10.389H159.247L161.966 27.2853ZM155.873 21.9268H158.446L157.159 13.3821L155.873 21.9268Z" fill="#35160B"/>
<path d="M162.457 24.8957C162.764 24.8957 163.015 24.8796 163.209 24.8474C163.42 24.8152 163.59 24.7428 163.719 24.6302C163.849 24.5015 163.938 24.3244 163.986 24.0992C164.051 23.8578 164.091 23.544 164.107 23.1578L164.544 10.389H172.094V27.2853H169.375V12.8028H167.045L166.753 23.013C166.705 24.5578 166.373 25.6601 165.758 26.3198C165.159 26.9796 164.196 27.3095 162.869 27.3095H162.457V24.8957Z" fill="#35160B"/>
<path d="M176.59 23.3992C176.59 24.0107 176.711 24.4451 176.954 24.7026C177.213 24.944 177.552 25.0647 177.973 25.0647C178.394 25.0647 178.726 24.944 178.968 24.7026C179.227 24.4451 179.357 24.0107 179.357 23.3992V14.2752C179.357 13.6637 179.227 13.2373 178.968 12.9959C178.726 12.7384 178.394 12.6097 177.973 12.6097C177.552 12.6097 177.213 12.7384 176.954 12.9959C176.711 13.2373 176.59 13.6637 176.59 14.2752V23.3992ZM173.919 14.4441C173.919 13.0763 174.267 12.0304 174.963 11.3062C175.659 10.566 176.662 10.1959 177.973 10.1959C179.284 10.1959 180.287 10.566 180.983 11.3062C181.679 12.0304 182.027 13.0763 182.027 14.4441V23.2302C182.027 24.598 181.679 25.652 180.983 26.3922C180.287 27.1164 179.284 27.4784 177.973 27.4784C176.662 27.4784 175.659 27.1164 174.963 26.3922C174.267 25.652 173.919 24.598 173.919 23.2302V14.4441Z" fill="#35160B"/>
<path d="M186.433 27.2853H183.762V10.389H186.433V17.6303H189.467V10.389H192.186V27.2853H189.467V20.044H186.433V27.2853Z" fill="#35160B"/>
<path d="M196.574 23.3992C196.574 24.0107 196.695 24.4451 196.938 24.7026C197.197 24.944 197.537 25.0647 197.957 25.0647C198.378 25.0647 198.71 24.944 198.953 24.7026C199.212 24.4451 199.341 24.0107 199.341 23.3992V14.2752C199.341 13.6637 199.212 13.2373 198.953 12.9959C198.71 12.7384 198.378 12.6097 197.957 12.6097C197.537 12.6097 197.197 12.7384 196.938 12.9959C196.695 13.2373 196.574 13.6637 196.574 14.2752V23.3992ZM193.903 14.4441C193.903 13.0763 194.251 12.0304 194.947 11.3062C195.643 10.566 196.646 10.1959 197.957 10.1959C199.268 10.1959 200.272 10.566 200.967 11.3062C201.663 12.0304 202.011 13.0763 202.011 14.4441V23.2302C202.011 24.598 201.663 25.652 200.967 26.3922C200.272 27.1164 199.268 27.4784 197.957 27.4784C196.646 27.4784 195.643 27.1164 194.947 26.3922C194.251 25.652 193.903 24.598 193.903 23.2302V14.4441Z" fill="#35160B"/>
<path d="M207.776 10.389C209.168 10.389 210.171 10.7109 210.786 11.3545C211.417 11.9982 211.733 12.9717 211.733 14.2752V14.8786C211.733 15.7476 211.595 16.4636 211.32 17.0268C211.045 17.5901 210.608 18.0084 210.009 18.282C210.738 18.5556 211.247 19.0061 211.539 19.6337C211.846 20.2452 212 21.0015 212 21.9026V23.2785C212 24.5819 211.66 25.5796 210.98 26.2715C210.301 26.9474 209.289 27.2853 207.946 27.2853H203.747V10.389H207.776ZM206.417 19.682V24.8716H207.946C208.399 24.8716 208.739 24.7509 208.966 24.5095C209.208 24.2681 209.33 23.8336 209.33 23.2061V21.7337C209.33 20.9452 209.192 20.4061 208.917 20.1165C208.658 19.8268 208.221 19.682 207.606 19.682H206.417ZM206.417 12.8028V17.2682H207.461C207.962 17.2682 208.351 17.1395 208.626 16.882C208.917 16.6246 209.063 16.1579 209.063 15.482V14.5407C209.063 13.9292 208.949 13.4867 208.723 13.2131C208.512 12.9396 208.173 12.8028 207.703 12.8028H206.417Z" fill="#35160B"/>
<path d="M69.4203 45.123V47.3678C69.4203 48.7356 69.0804 49.7896 68.4007 50.5298C67.7372 51.2539 66.75 51.616 65.4392 51.616C64.1283 51.616 63.1331 51.2539 62.4534 50.5298C61.7898 49.7896 61.4581 48.7356 61.4581 47.3678V38.5817C61.4581 37.2139 61.7898 36.1679 62.4534 35.4438C63.1331 34.7036 64.1283 34.3335 65.4392 34.3335C66.75 34.3335 67.7372 34.7036 68.4007 35.4438C69.0804 36.1679 69.4203 37.2139 69.4203 38.5817V40.2231H66.8957V38.4127C66.8957 37.8013 66.7662 37.3748 66.5073 37.1334C66.2645 36.876 65.9328 36.7472 65.512 36.7472C65.0912 36.7472 64.7514 36.876 64.4924 37.1334C64.2497 37.3748 64.1283 37.8013 64.1283 38.4127V47.5367C64.1283 48.1482 64.2497 48.5747 64.4924 48.816C64.7514 49.0574 65.0912 49.1781 65.512 49.1781C65.9328 49.1781 66.2645 49.0574 66.5073 48.816C66.7662 48.5747 66.8957 48.1482 66.8957 47.5367V45.123H69.4203Z" fill="#35160B"/>
<path d="M73.7107 51.4229H71.0404V34.5266H73.7107V41.7679H76.745V34.5266H79.4638V51.4229H76.745V44.1816H73.7107V51.4229Z" fill="#35160B"/>
<path d="M84.0702 41.6472H87.7357V44.0609H84.0702V49.0091H88.6824V51.4229H81.3999V34.5266H88.6824V36.9403H84.0702V41.6472Z" fill="#35160B"/>
<path d="M93.0073 41.6472H96.6729V44.0609H93.0073V49.0091H97.6196V51.4229H90.3371V34.5266H97.6196V36.9403H93.0073V41.6472Z" fill="#35160B"/>
<path d="M98.9344 38.5817C98.9344 37.2139 99.2581 36.1679 99.9054 35.4438C100.569 34.7036 101.556 34.3335 102.867 34.3335C104.178 34.3335 105.157 34.7036 105.804 35.4438C106.468 36.1679 106.799 37.2139 106.799 38.5817V39.1127H104.275V38.4127C104.275 37.8013 104.154 37.3748 103.911 37.1334C103.684 36.876 103.361 36.7472 102.94 36.7472C102.519 36.7472 102.187 36.876 101.944 37.1334C101.718 37.3748 101.605 37.8013 101.605 38.4127C101.605 38.992 101.734 39.507 101.993 39.9575C102.252 40.392 102.576 40.8104 102.964 41.2127C103.352 41.5989 103.765 41.9931 104.202 42.3954C104.655 42.7816 105.076 43.2081 105.464 43.6747C105.853 44.1414 106.176 44.6724 106.435 45.2678C106.694 45.8632 106.824 46.5632 106.824 47.3678C106.824 48.7356 106.484 49.7896 105.804 50.5298C105.141 51.2539 104.154 51.616 102.843 51.616C101.532 51.616 100.537 51.2539 99.8568 50.5298C99.1933 49.7896 98.8616 48.7356 98.8616 47.3678V46.3299H101.386V47.5367C101.386 48.1482 101.508 48.5747 101.75 48.816C102.009 49.0574 102.349 49.1781 102.77 49.1781C103.191 49.1781 103.522 49.0574 103.765 48.816C104.024 48.5747 104.154 48.1482 104.154 47.5367C104.154 46.9574 104.024 46.4505 103.765 46.0161C103.506 45.5655 103.183 45.1471 102.794 44.7609C102.406 44.3586 101.985 43.9644 101.532 43.5782C101.095 43.1759 100.682 42.7414 100.294 42.2747C99.9054 41.8081 99.5817 41.2771 99.3228 40.6817C99.0639 40.0863 98.9344 39.3863 98.9344 38.5817Z" fill="#35160B"/>
<path d="M111.024 41.6472H114.689V44.0609H111.024V49.0091H115.636V51.4229H108.354V34.5266H115.636V36.9403H111.024V41.6472Z" fill="#35160B"/>
<path d="M124.993 34.5266C126.336 34.5266 127.331 34.8806 127.978 35.5886C128.642 36.2967 128.974 37.3346 128.974 38.7024V40.8989C128.974 42.2667 128.642 43.3046 127.978 44.0127C127.331 44.7207 126.336 45.0747 124.993 45.0747H123.73V51.4229H121.06V34.5266H124.993ZM123.73 36.9403V42.6609H124.993C125.413 42.6609 125.737 42.5483 125.964 42.323C126.19 42.0977 126.303 41.6794 126.303 41.0679V38.5334C126.303 37.9219 126.19 37.5036 125.964 37.2783C125.737 37.053 125.413 36.9403 124.993 36.9403H123.73Z" fill="#35160B"/>
<path d="M132.999 51.4229H130.329V34.5266H132.999V41.7679H136.034V34.5266H138.752V51.4229H136.034V44.1816H132.999V51.4229Z" fill="#35160B"/>
<path d="M143.14 47.5367C143.14 48.1482 143.262 48.5827 143.504 48.8402C143.763 49.0815 144.103 49.2022 144.524 49.2022C144.945 49.2022 145.277 49.0815 145.519 48.8402C145.778 48.5827 145.908 48.1482 145.908 47.5367V38.4127C145.908 37.8013 145.778 37.3748 145.519 37.1334C145.277 36.876 144.945 36.7472 144.524 36.7472C144.103 36.7472 143.763 36.876 143.504 37.1334C143.262 37.3748 143.14 37.8013 143.14 38.4127V47.5367ZM140.47 38.5817C140.47 37.2139 140.818 36.1679 141.514 35.4438C142.21 34.7036 143.213 34.3335 144.524 34.3335C145.835 34.3335 146.838 34.7036 147.534 35.4438C148.23 36.1679 148.578 37.2139 148.578 38.5817V47.3678C148.578 48.7356 148.23 49.7896 147.534 50.5298C146.838 51.2539 145.835 51.616 144.524 51.616C143.213 51.616 142.21 51.2539 141.514 50.5298C140.818 49.7896 140.47 48.7356 140.47 47.3678V38.5817Z" fill="#35160B"/>
<path d="M149.536 34.5266H157.79V36.9403H154.998V51.4229H152.328V36.9403H149.536V34.5266Z" fill="#35160B"/>
<path d="M161.418 47.5367C161.418 48.1482 161.539 48.5827 161.782 48.8402C162.041 49.0815 162.381 49.2022 162.801 49.2022C163.222 49.2022 163.554 49.0815 163.797 48.8402C164.056 48.5827 164.185 48.1482 164.185 47.5367V38.4127C164.185 37.8013 164.056 37.3748 163.797 37.1334C163.554 36.876 163.222 36.7472 162.801 36.7472C162.381 36.7472 162.041 36.876 161.782 37.1334C161.539 37.3748 161.418 37.8013 161.418 38.4127V47.5367ZM158.747 38.5817C158.747 37.2139 159.095 36.1679 159.791 35.4438C160.487 34.7036 161.49 34.3335 162.801 34.3335C164.112 34.3335 165.116 34.7036 165.811 35.4438C166.507 36.1679 166.855 37.2139 166.855 38.5817V47.3678C166.855 48.7356 166.507 49.7896 165.811 50.5298C165.116 51.2539 164.112 51.616 162.801 51.616C161.49 51.616 160.487 51.2539 159.791 50.5298C159.095 49.7896 158.747 48.7356 158.747 47.3678V38.5817Z" fill="#35160B"/>
<path fill-rule="evenodd" clip-rule="evenodd" d="M6.73588 19.0406H46.8536C47.1828 19.0406 46.9215 22.7835 48.6042 24.4762C50.2294 26.1111 53.809 25.6906 53.809 26.353V46.9548C53.809 50.2456 51.2484 52.9371 48.113 52.9371H6.73588C3.60047 52.9371 1.03987 50.2456 1.03987 46.9548V25.023C1.03987 21.7321 3.60047 19.0406 6.73588 19.0406Z" fill="white"/>
<path fill-rule="evenodd" clip-rule="evenodd" d="M43.6347 22.937C43.8019 22.937 44.5753 25.6391 47.2404 27.8365C49.5345 29.7237 53.0357 29.5975 53.0357 29.8656L53.3023 47.2397C53.3441 50.0206 50.8096 52.2968 47.7682 52.2968H7.54082C4.49946 52.2968 2.0068 50.0206 2.0068 47.2397V35.3696C2.03816 31.6898 2.06951 28.01 2.09564 24.3301C2.11132 24.2197 2.20015 23.8255 2.30989 23.4838C2.3935 23.2209 2.49279 22.9843 2.52415 22.9318H43.6347V22.937Z" fill="#FFCC2C"/>
<path fill-rule="evenodd" clip-rule="evenodd" d="M20.1607 14.0923H33.9775C34.338 14.0923 34.6359 14.4498 34.6359 14.8914V18.1191C34.6359 18.5607 34.338 18.9182 33.9775 18.9182H20.1607C19.8001 18.9182 19.5023 18.5555 19.5023 18.1191V14.8914C19.5023 14.4498 19.8001 14.0923 20.1607 14.0923Z" fill="#FFCC2C"/>
<path fill-rule="evenodd" clip-rule="evenodd" d="M20.1554 13.2256H33.9722C34.3955 13.2256 34.7717 13.4254 35.033 13.7461C35.2682 14.0299 35.4092 14.4084 35.4092 14.8237V18.0515C35.4092 18.4615 35.2682 18.8452 35.033 19.1291C34.7717 19.4498 34.3902 19.6496 33.9722 19.6496H20.1554C19.7322 19.6496 19.3559 19.4498 19.0894 19.1291C18.8595 18.8452 18.7131 18.4615 18.7131 18.0515V14.8237C18.7131 14.4084 18.8595 14.0299 19.0894 13.7461C19.3559 13.4254 19.7322 13.2256 20.1554 13.2256ZM33.8468 14.8185H20.2808V18.0567H33.8468V14.8185Z" fill="#35160B"/>
<path fill-rule="evenodd" clip-rule="evenodd" d="M27.5553 26.3225C32.4623 26.3225 36.439 30.3756 36.439 35.3801C36.439 40.3847 32.4623 44.4325 27.5553 44.4325C22.6484 44.4325 18.6717 40.3795 18.6717 35.3801C18.6717 30.3808 22.6484 26.3225 27.5553 26.3225Z" fill="white"/>
<path fill-rule="evenodd" clip-rule="evenodd" d="M27.5553 25.5283C30.2257 25.5283 32.6399 26.6323 34.3905 28.4143C36.1411 30.1964 37.2229 32.6619 37.2229 35.3797C37.2229 38.0976 36.1411 40.5631 34.3905 42.3451C32.6451 44.1272 30.2257 45.2312 27.5553 45.2312C24.885 45.2312 22.4707 44.1272 20.7253 42.3451C18.9747 40.5631 17.893 38.0976 17.893 35.3797C17.893 32.6619 18.9747 30.1964 20.7253 28.4143C22.4707 26.6323 24.8902 25.5283 27.5553 25.5283ZM33.2827 29.5393C31.8143 28.0464 29.7919 27.1212 27.5553 27.1212C25.3187 27.1212 23.2911 28.0464 21.828 29.5393C20.3595 31.0323 19.4555 33.0982 19.4555 35.3797C19.4555 37.6612 20.3595 39.722 21.828 41.2202C23.2911 42.7131 25.3187 43.6383 27.5553 43.6383C29.7919 43.6383 31.8195 42.7131 33.2827 41.2202C34.7459 39.7272 35.6552 37.6612 35.6552 35.3797C35.6552 33.0982 34.7459 31.0323 33.2827 29.5393Z" fill="#35160B"/>
<path fill-rule="evenodd" clip-rule="evenodd" d="M2.0068 35.2048L2.01725 27.7663C6.23439 27.719 9.6938 30.9993 9.77219 35.1102C9.85057 39.2474 6.25007 42.6539 2.0068 42.738V35.2048Z" fill="white"/>
<path fill-rule="evenodd" clip-rule="evenodd" d="M43.4674 29.4866C44.9045 29.4866 46.0698 30.6273 46.0698 32.0362C46.0698 33.445 44.9045 34.591 43.4674 34.591C42.0303 34.591 40.865 33.4503 40.865 32.0362C40.865 30.6221 42.0303 29.4866 43.4674 29.4866Z" fill="white"/>
<path fill-rule="evenodd" clip-rule="evenodd" d="M53.297 46.7344C52.0533 46.7502 50.611 46.2665 49.6233 45.5621C47.1777 43.8221 46.7126 40.5418 48.5887 38.2393C49.6965 36.8777 51.3165 36.0997 53.135 36.1628L53.297 46.7344Z" fill="white"/>
<path fill-rule="evenodd" clip-rule="evenodd" d="M27.0273 0H27.3513C27.7432 0 28.0672 0.304901 28.0672 0.678141V9.95132C28.0672 10.3246 27.7432 10.6295 27.3513 10.6295H27.0273C26.6354 10.6295 26.3114 10.3246 26.3114 9.95132V0.678141C26.3114 0.304901 26.6354 0 27.0273 0Z" fill="#35160B"/>
<path fill-rule="evenodd" clip-rule="evenodd" d="M40.1596 2.7121L40.3843 2.94867C40.6612 3.2378 40.6769 3.68463 40.4156 3.94748L33.9305 10.4503C33.6693 10.7131 33.2303 10.6921 32.9533 10.403L32.7286 10.1717C32.4517 9.88252 32.4412 9.43568 32.6973 9.17284L39.1824 2.67005C39.4436 2.40721 39.8826 2.42823 40.1596 2.71736V2.7121Z" fill="#35160B"/>
<path fill-rule="evenodd" clip-rule="evenodd" d="M21.0911 10.403L21.3158 10.1717C21.5927 9.88252 21.6084 9.43569 21.3471 9.17284L14.862 2.67005C14.6007 2.40721 14.1618 2.42823 13.8848 2.71736L13.6601 2.95392C13.3831 3.24305 13.3675 3.68989 13.6288 3.95273L20.1138 10.4555C20.3751 10.7184 20.8141 10.6973 21.0911 10.4082V10.403Z" fill="#35160B"/>
<path fill-rule="evenodd" clip-rule="evenodd" d="M46.6005 17.9744H6.73593V17.9797C4.87558 17.9797 3.18767 18.7787 1.97009 20.0614C0.7525 21.3389 0 23.0947 0 25.0239V46.9557C0 48.885 0.7525 50.6408 1.97009 51.9183C3.1929 53.201 4.8808 54 6.73593 54H48.1182C49.9786 54 51.6665 53.201 52.8841 51.9183C54.1017 50.6461 54.8542 48.885 54.8542 46.9557V25.3171C54.4072 25.3117 53.9685 25.2713 53.5408 25.1986C51.5738 25.1053 50.0882 24.1012 49.0289 22.8676C47.736 21.5816 46.8544 19.878 46.6005 17.9744ZM52.7743 46.9557L53.0722 26.9007H53.067C46.9219 26.1423 45.3903 20.103 45.3903 20.103L6.73593 20.1035C5.46086 20.1035 4.30075 20.6555 3.45941 21.5386C2.61285 22.427 2.08505 23.6624 2.08505 25.0239V46.9557C2.08505 48.312 2.61285 49.5474 3.45941 50.4411C4.30075 51.3242 5.46086 51.8762 6.73593 51.8762H48.1235C49.3985 51.8762 50.5586 51.3242 51.4 50.4411C52.2465 49.5527 52.7743 48.3173 52.7743 46.9557Z" fill="#35160B"/>
</svg>
