<svg width="14" height="10" viewBox="0 0 14 10" fill="none" xmlns="http://www.w3.org/2000/svg">
<path d="M6.99973 4.29845C8.10709 4.29845 13.4913 1.5 13.4913 1.5L13.5 1C13.5 0.448 13.0153 0 12.4164 0H1.58302C0.984707 0 0.5 0.448 0.5 1V1.4455C0.5 1.4455 5.94322 4.29845 6.99973 4.29845Z" fill="#151515"/>
<path d="M6.99973 5.67345C5.94322 5.67345 0.508655 3 0.508655 3L0.5 9C0.5 9.552 0.985248 10 1.58302 10H12.4164C13.0153 10 13.5 9.552 13.5 9L13.4913 3C13.4913 3 8.15794 5.67345 6.99973 5.67345Z" fill="#151515"/>
</svg>
