<svg width="16" height="10" viewBox="0 0 16 10" fill="none" xmlns="http://www.w3.org/2000/svg">
<path fill-rule="evenodd" clip-rule="evenodd" d="M15.6235 0.69395C15.7421 0.30251 15.6235 0.0178071 15.0982 0.0178071H13.3528C12.9123 0.0178071 12.7089 0.266896 12.5903 0.533844C12.5903 0.533844 11.6922 2.81141 10.4382 4.28824C10.0315 4.7153 9.84515 4.85765 9.6249 4.85765C9.50624 4.85765 9.35377 4.7153 9.35377 4.32386V0.676143C9.35377 0.213527 9.21821 0 8.84538 0H6.10028C5.82915 0 5.65972 0.213527 5.65972 0.427054C5.65972 0.871915 6.28667 0.978653 6.35445 2.2242V4.92882C6.35445 5.51604 6.2528 5.62277 6.0325 5.62277C5.43942 5.62277 3.99909 3.3274 3.13488 0.711757C2.9654 0.19572 2.79597 0 2.35541 0H0.593076C0.0847302 0 0 0.249141 0 0.516037C0 0.99646 0.593076 3.41638 2.76205 6.61923C4.20243 8.80782 6.2528 9.98219 8.09983 9.98219C9.21821 9.98219 9.35377 9.7153 9.35377 9.27049V7.61569C9.35377 7.08185 9.45542 6.99292 9.81129 6.99292C10.0655 6.99292 10.523 7.13522 11.5566 8.18505C12.7428 9.4306 12.9461 10 13.607 10H15.3524C15.8607 10 16.098 9.7331 15.9624 9.21707C15.8099 8.70108 15.2338 7.95377 14.4881 7.06404C14.0815 6.56587 13.4714 6.01427 13.285 5.74732C13.0309 5.39149 13.0986 5.24914 13.285 4.92882C13.2681 4.92882 15.4032 1.76159 15.6235 0.69395Z" fill="#151515"/>
</svg>
