<svg width="12" height="12" viewBox="0 0 12 12" fill="none" xmlns="http://www.w3.org/2000/svg">
<path fill-rule="evenodd" clip-rule="evenodd" d="M0.453885 11.6295L2.72475 11.034L2.94385 11.164C3.86506 11.7104 4.92103 11.9996 5.99768 12H6.00011C9.30711 12 11.9987 9.30934 12 6.00217C12.0006 4.39953 11.3771 2.89264 10.2443 1.75892C9.11153 0.625212 7.60506 0.000555445 6.00247 0C2.69291 0 0.00131371 2.69039 5.10174e-07 5.99731C-0.000464343 7.13062 0.316748 8.23432 0.917355 9.18925L1.06001 9.41618L0.453885 11.6295ZM9.38985 7.55638C9.51565 7.61716 9.6006 7.6582 9.63688 7.71873C9.68196 7.79391 9.68196 8.15492 9.53173 8.57617C9.38136 8.99734 8.66077 9.38174 8.31419 9.43349C8.00345 9.47993 7.6102 9.4993 7.17813 9.36203C6.91614 9.27895 6.58019 9.16801 6.14985 8.98222C4.45889 8.25233 3.31615 6.61403 3.10017 6.30438C3.08504 6.28269 3.07446 6.26752 3.06856 6.25964L3.0671 6.2577C2.97164 6.13038 2.33205 5.27731 2.33205 4.39442C2.33205 3.56387 2.74017 3.12854 2.92803 2.92816C2.9409 2.91443 2.95274 2.90181 2.96334 2.89023C3.12867 2.70971 3.32409 2.66459 3.44433 2.66459C3.56457 2.66459 3.68494 2.6657 3.79004 2.67097C3.803 2.67162 3.81649 2.67154 3.83044 2.67146C3.93555 2.67085 4.06659 2.67008 4.19587 2.98049C4.2456 3.09995 4.31837 3.27704 4.39512 3.46383C4.55033 3.84156 4.72182 4.2589 4.75199 4.3193C4.79709 4.40955 4.82714 4.51481 4.76702 4.6352C4.758 4.65325 4.74965 4.67029 4.74167 4.68656C4.69652 4.77872 4.6633 4.84651 4.58666 4.93597C4.55652 4.97114 4.52537 5.00906 4.49422 5.04698C4.43217 5.12253 4.37012 5.19806 4.31609 5.25187C4.22579 5.34178 4.13179 5.43933 4.23701 5.61985C4.34223 5.80036 4.70422 6.39079 5.24044 6.86892C5.81685 7.38286 6.31782 7.60009 6.57175 7.71019C6.62134 7.73169 6.6615 7.74911 6.69097 7.76385C6.87128 7.85414 6.9765 7.83903 7.08172 7.71873C7.18695 7.5984 7.53262 7.19221 7.65285 7.01173C7.77307 6.83128 7.89337 6.86134 8.05867 6.92149C8.22404 6.98172 9.11083 7.41787 9.29121 7.50811C9.32642 7.52574 9.35933 7.54164 9.38985 7.55638Z" fill="#151515"/>
</svg>
