<svg width="30" height="30" viewBox="0 0 30 30" fill="none" xmlns="http://www.w3.org/2000/svg">
<path d="M29.2449 11.3253C29.1548 11.0519 28.9909 10.8118 28.773 10.634C28.5551 10.4563 28.2926 10.3485 28.0174 10.3239L20.8678 9.23169C20.2603 9.13888 19.7388 8.74974 19.477 8.19375L16.2562 1.35541C16.1393 1.10269 15.9568 0.889558 15.7296 0.740429C15.5024 0.591301 15.2397 0.512207 14.9716 0.512207C14.7034 0.512207 14.4407 0.591301 14.2135 0.740429C13.9863 0.889558 13.8038 1.10269 13.687 1.35541L10.4656 8.18184C10.204 8.73613 9.68429 9.12439 9.07858 9.21803L1.92569 10.3239C1.66153 10.3632 1.41317 10.4793 1.20881 10.6589C1.00446 10.8386 0.852278 11.0746 0.76955 11.3403C0.693822 11.5999 0.687027 11.8762 0.749892 12.1395C0.812758 12.4028 0.942911 12.6433 1.12638 12.835L6.35917 18.1424C6.77501 18.5642 6.96313 19.1599 6.86494 19.744L5.59395 27.3041C5.543 27.5844 5.56968 27.874 5.67085 28.1389C5.77201 28.4037 5.94344 28.6327 6.16489 28.7989C6.38073 28.9605 6.6353 29.0558 6.90004 29.0743C7.16477 29.0928 7.42918 29.0337 7.66359 28.9035L14.0837 25.3974C14.6368 25.0954 15.3058 25.0964 15.8579 25.4003L22.251 28.9184C22.4513 29.0368 22.6776 29.0986 22.9076 29.0978C23.2099 29.0989 23.5048 28.9995 23.7497 28.8138C23.9711 28.6477 24.1426 28.4187 24.2437 28.1538C24.3449 27.8889 24.3716 27.5993 24.3206 27.3191L23.0496 19.759C22.9514 19.1749 23.1396 18.5791 23.5554 18.1574L28.7882 12.85C28.9943 12.6671 29.1466 12.4268 29.2274 12.1569C29.3083 11.887 29.3144 11.5987 29.2449 11.3253Z" fill="#F9A317"/>
<path d="M29.2449 11.3253C29.1548 11.0519 28.9909 10.8118 28.773 10.634C28.5551 10.4563 28.2926 10.3485 28.0174 10.3239L20.8678 9.23169C20.2603 9.13888 19.7388 8.74974 19.477 8.19375L16.2562 1.35541C16.1393 1.10269 15.9568 0.889558 15.7296 0.740429C15.5024 0.591301 15.2397 0.512207 14.9716 0.512207C14.7034 0.512207 14.4407 0.591301 14.2135 0.740429C13.9863 0.889558 13.8038 1.10269 13.687 1.35541L10.4656 8.18184C10.204 8.73613 9.68429 9.12439 9.07858 9.21803L1.92569 10.3239C1.66153 10.3632 1.41317 10.4793 1.20881 10.6589C1.00446 10.8386 0.852278 11.0746 0.76955 11.3403C0.693822 11.5999 0.687027 11.8762 0.749892 12.1395C0.812758 12.4028 0.942911 12.6433 1.12638 12.835L6.35917 18.1424C6.77501 18.5642 6.96313 19.1599 6.86494 19.744L5.59395 27.3041C5.543 27.5844 5.56968 27.874 5.67085 28.1389C5.77201 28.4037 5.94344 28.6327 6.16489 28.7989C6.38073 28.9605 6.6353 29.0558 6.90004 29.0743C7.16477 29.0928 7.42918 29.0337 7.66359 28.9035L14.0837 25.3974C14.6368 25.0954 15.3058 25.0964 15.8579 25.4003L22.251 28.9184C22.4513 29.0368 22.6776 29.0986 22.9076 29.0978C23.2099 29.0989 23.5048 28.9995 23.7497 28.8138C23.9711 28.6477 24.1426 28.4187 24.2437 28.1538C24.3449 27.8889 24.3716 27.5993 24.3206 27.3191L23.0496 19.759C22.9514 19.1749 23.1396 18.5791 23.5554 18.1574L28.7882 12.85C28.9943 12.6671 29.1466 12.4268 29.2274 12.1569C29.3083 11.887 29.3144 11.5987 29.2449 11.3253Z" fill="url(#paint0_radial_233_10516)" fill-opacity="0.4"/>
<defs>
<radialGradient id="paint0_radial_233_10516" cx="0" cy="0" r="1" gradientUnits="userSpaceOnUse" gradientTransform="translate(15.0001 0.512207) rotate(90) scale(14.2928 14.2928)">
<stop stop-color="white"/>
<stop offset="1" stop-color="white" stop-opacity="0"/>
</radialGradient>
</defs>
</svg>
