<svg width="22" height="15" viewBox="0 0 22 15" fill="none" xmlns="http://www.w3.org/2000/svg">
<path d="M21.7397 1.90975L15.3744 7.72978L21.7397 13.5498C21.8547 13.3285 21.9245 13.0838 21.9245 12.8225V2.63703C21.9245 2.37572 21.8547 2.13108 21.7397 1.90975Z" fill="#313030"/>
<path d="M20.0799 0.939453H2.78095C2.49699 0.939453 2.23116 1.0037 1.99065 1.10959L10.1262 8.55869C10.8455 9.22067 12.0153 9.22067 12.7346 8.55869L20.8702 1.10959C20.6297 1.0037 20.3638 0.939453 20.0799 0.939453Z" fill="#313030"/>
<path d="M1.12116 1.90975C1.00609 2.13108 0.936279 2.37572 0.936279 2.63703V12.8225C0.936279 13.0838 1.00609 13.3285 1.12116 13.5498L7.48646 7.72978L1.12116 1.90975Z" fill="#313030"/>
<path d="M14.5049 8.52994L13.6041 9.35885C12.4055 10.4619 10.4552 10.4619 9.25665 9.35885L8.35596 8.52994L1.99065 14.35C2.23116 14.4559 2.49699 14.5201 2.78095 14.5201H20.0799C20.3638 14.5201 20.6297 14.4559 20.8702 14.35L14.5049 8.52994Z" fill="#313030"/>
</svg>
