<svg width="19" height="20" viewBox="0 0 19 20" fill="none" xmlns="http://www.w3.org/2000/svg">
<path d="M15.7458 12.2354C15.0765 11.5746 14.2409 11.5746 13.5759 12.2354C13.0686 12.7384 12.5613 13.2414 12.0625 13.753C11.9261 13.8937 11.811 13.9235 11.6448 13.8297C11.3165 13.6507 10.9669 13.5057 10.6515 13.3096C9.18073 12.3846 7.94872 11.1952 6.85738 9.85668C6.31598 9.19167 5.83426 8.47976 5.49748 7.67834C5.42927 7.51634 5.44206 7.40977 5.57421 7.27762C6.08151 6.78739 6.57602 6.28436 7.0748 5.78134C7.76967 5.08222 7.76967 4.26374 7.07053 3.56036C6.67407 3.15965 6.27761 2.76746 5.88115 2.36675C5.4719 1.95751 5.06691 1.544 4.6534 1.13903C3.9841 0.486803 3.14855 0.486803 2.48352 1.14329C1.97195 1.64631 1.48171 2.16213 0.961616 2.65662C0.479894 3.11276 0.236901 3.6712 0.185745 4.32342C0.104747 5.38489 0.364792 6.38667 0.731412 7.36288C1.48171 9.3835 2.6242 11.1782 4.00968 12.8237C5.88115 15.0489 8.11498 16.8095 10.7282 18.0798C11.9048 18.6511 13.124 19.0901 14.4498 19.1626C15.3621 19.2138 16.155 18.9836 16.7902 18.2717C17.2251 17.7857 17.7153 17.3424 18.1757 16.8777C18.8578 16.1871 18.8621 15.3516 18.1842 14.6695C17.3743 13.8553 16.56 13.0453 15.7458 12.2354Z" fill="#313030"/>
</svg>
