<svg width="19" height="20" viewBox="0 0 19 20" fill="none" xmlns="http://www.w3.org/2000/svg">
<path fill-rule="evenodd" clip-rule="evenodd" d="M13.9047 0.0922179C13.5396 0.156059 12.9411 0.393862 12.5891 0.615036C11.1634 1.51068 10.4446 3.27133 10.7954 5.00845C10.8167 5.11373 10.7749 5.136 8.99607 5.96861L7.17493 6.82098L6.95395 6.60206C6.62771 6.27878 6.36917 6.09307 5.94621 5.87813C5.34756 5.57394 5.03743 5.50255 4.30222 5.49975C3.7742 5.49775 3.62751 5.51222 3.33795 5.59468C1.9439 5.9919 0.899195 7.09726 0.540889 8.55415C0.393597 9.15324 0.393597 9.93791 0.540889 10.537C0.899195 11.9939 1.9439 13.0993 3.33795 13.4965C3.62751 13.5789 3.7742 13.5934 4.30222 13.5914C5.03743 13.5886 5.34756 13.5172 5.94621 13.213C6.36957 12.9979 6.62819 12.812 6.95395 12.4888L7.17493 12.2695L8.97703 13.1107C9.96818 13.5732 10.7879 13.961 10.7986 13.9723C10.8093 13.9836 10.7948 14.1042 10.7665 14.2402C10.681 14.6505 10.7013 15.4835 10.8078 15.9297C10.9071 16.3459 11.1691 16.9735 11.3763 17.2914C11.7568 17.8752 12.4551 18.4727 13.0762 18.7457C13.998 19.1508 15.1349 19.1519 16.0529 18.7484C16.6679 18.4781 17.3242 17.9293 17.7066 17.3657C17.9495 17.0077 18.2198 16.3836 18.3194 15.9509C18.6337 14.5859 18.2635 13.1514 17.3399 12.1559C16.821 11.5965 16.2196 11.2247 15.5118 11.0256C15.009 10.8841 14.1075 10.8842 13.6235 11.0259C12.7783 11.2732 12.0146 11.794 11.5354 12.4497C11.441 12.5789 11.3433 12.6846 11.3184 12.6846C11.2935 12.6846 10.5085 12.3267 9.57407 11.8892C8.0494 11.1755 7.87748 11.0852 7.89853 11.009C8.10525 10.2606 8.12899 10.1099 8.12899 9.54558C8.12899 8.98123 8.10525 8.83051 7.89853 8.08211C7.87748 8.00597 8.0494 7.91565 9.57407 7.20191C10.5085 6.76444 11.2935 6.40655 11.3184 6.40655C11.3433 6.40655 11.441 6.51221 11.5354 6.64142C12.0225 7.308 12.829 7.85292 13.6485 8.06921C14.1543 8.20271 14.981 8.20271 15.4868 8.06921C16.8557 7.70793 17.9517 6.57194 18.3043 5.14898C18.6686 3.67903 18.2306 2.12695 17.1605 1.09586C16.6379 0.592299 15.8798 0.204587 15.1904 0.0883154C14.8802 0.0360124 14.2146 0.038006 13.9047 0.0922179Z" fill="#313030"/>
</svg>
