<svg width="19" height="11" viewBox="0 0 19 11" fill="none" xmlns="http://www.w3.org/2000/svg">
<path d="M10.3622 10.5085C10.3622 10.5085 10.6871 10.4733 10.8535 10.2993C11.0058 10.1398 11.0005 9.83893 11.0005 9.83893C11.0005 9.83893 10.9803 8.43378 11.6502 8.22631C12.3105 8.02227 13.1583 9.58516 14.0581 10.1861C14.7377 10.6405 15.2536 10.5411 15.2536 10.5411L17.658 10.5085C17.658 10.5085 18.9151 10.4331 18.3191 9.47028C18.2698 9.39141 17.9714 8.75785 16.5319 7.45644C15.0239 6.09415 15.2263 6.31449 17.0417 3.95771C18.1474 2.52256 18.5894 1.64638 18.4512 1.27173C18.32 0.91337 17.5065 1.00853 17.5065 1.00853L14.8002 1.02482C14.8002 1.02482 14.5995 0.998244 14.4507 1.08483C14.3055 1.16971 14.2113 1.36775 14.2113 1.36775C14.2113 1.36775 13.7834 2.47798 13.212 3.42275C12.0068 5.41516 11.5252 5.52061 11.328 5.39715C10.8693 5.10824 10.9838 4.23806 10.9838 3.61993C10.9838 1.68839 11.2849 0.883364 10.3983 0.675035C10.1043 0.605592 9.88771 0.560154 9.13499 0.552438C8.16921 0.543007 7.35222 0.555867 6.88914 0.776199C6.581 0.9228 6.3433 1.2503 6.48856 1.26916C6.66728 1.29231 7.07226 1.37547 7.28707 1.6601C7.56439 2.02789 7.55471 2.85263 7.55471 2.85263C7.55471 2.85263 7.71405 5.12624 7.1823 5.4083C6.81783 5.60205 6.31777 5.20683 5.24283 3.39874C4.69259 2.47284 4.27705 1.44919 4.27705 1.44919C4.27705 1.44919 4.19693 1.25801 4.05343 1.15513C3.88 1.03082 3.63789 0.992243 3.63789 0.992243L1.0663 1.00853C1.0663 1.00853 0.679813 1.01882 0.538071 1.18257C0.412177 1.32746 0.528387 1.62837 0.528387 1.62837C0.528387 1.62837 2.54182 6.21589 4.822 8.52809C6.91291 10.6474 9.28641 10.5085 9.28641 10.5085H10.3622Z" fill="#212121"/>
</svg>
